<?xml version="1.0" standalone="no"?>
<!DOCTYPE svg PUBLIC "-//W3C//DTD SVG 1.1//EN" "http://www.w3.org/Graphics/SVG/1.1/DTD/svg11.dtd" >
<svg xmlns="http://www.w3.org/2000/svg">
<metadata></metadata>
<defs>
<font id="gando_btregular" horiz-adv-x="578" >
<font-face units-per-em="2048" ascent="1638" descent="-410" />
<missing-glyph horiz-adv-x="289" />
<glyph horiz-adv-x="0" />
<glyph unicode="&#xd;" horiz-adv-x="289" />
<glyph unicode=" "  horiz-adv-x="289" />
<glyph unicode="&#x09;" horiz-adv-x="289" />
<glyph unicode="&#xa0;" horiz-adv-x="289" />
<glyph unicode="!" horiz-adv-x="598" d="M246 -18q0 34 3.5 71.5t10.5 81.5q23 7 49 9.5t62 2.5h30q0 -39 -3 -76.5t-9 -76.5q-23 -7 -49.5 -9.5t-63.5 -2.5h-30zM309 301l35 864q51 18 76.5 25.5t48.5 11.5l-91 -893q-15 -4 -31.5 -6t-37.5 -2z" />
<glyph unicode="&#x22;" horiz-adv-x="672" d="M92 1364q0 47 20.5 72.5t59.5 25.5t60.5 -25t21.5 -71q0 -10 -3 -36q-1 -5 -1 -7l-62 -455h-30l-62 455v4q-4 25 -4 37zM418 1366q0 46 21 71t61 25q38 0 59 -25.5t21 -72.5q0 -12 -4 -37q0 -2 -1 -4l-61 -455h-31l-61 455q-3 18 -3.5 26.5t-0.5 16.5z" />
<glyph unicode="#" horiz-adv-x="1575" d="M117 479l37 99h329l105 294h-359l35 99h359l170 483h114l-172 -483h295l172 483h113l-172 -483h315l-35 -99h-315l-102 -294h340l-37 -99h-340l-170 -479h-113l170 479h-293l-172 -479h-112l170 479h-332zM596 578h295l104 294h-295z" />
<glyph unicode="$" d="M27 182q0 47 24.5 77t63.5 30q32 0 50.5 -18.5t18.5 -51.5q0 -31 -14 -47.5t-47 -24.5q8 -52 41 -82.5t90 -39.5l14 352q-113 74 -161 135t-48 127q0 93 65 161.5t167 80.5l4 94h33l-4 -94q95 -8 153 -61t58 -132q0 -49 -22 -75.5t-60 -26.5q-32 0 -51 16.5t-19 44.5 q0 29 14.5 45.5t40.5 16.5h11q-8 60 -39.5 94.5t-87.5 44.5l-15 -350q122 -77 168.5 -136t46.5 -131q0 -89 -68 -160t-167 -81l-6 -105h-33l4 101q-97 4 -161 61t-64 135zM131 709q0 -75 134 -176q8 -6 11 -8l12 325q-73 -9 -115 -46.5t-42 -94.5zM289 20q72 9 117 53 t45 103q0 70 -144 174q-4 3 -6 4z" />
<glyph unicode="%" horiz-adv-x="1034" d="M61 567q0 61 30 128t48 67q5 0 7.5 -1.5t3.5 -4.5q0 -1 -9.5 -39t-9.5 -74q0 -70 41 -110.5t111 -40.5q62 0 101.5 44t39.5 115q0 66 -42 110t-103 44q-15 0 -34.5 -3.5t-39.5 -8.5l-8 4q5 23 11.5 42.5t14.5 36.5q21 8 39.5 11.5t36.5 3.5q74 0 120 -61t46 -160 q0 -114 -65.5 -190.5t-166.5 -76.5q-76 0 -124 45t-48 119zM225 -14q117 197 241.5 421.5t260.5 483.5h94q-124 -211 -248.5 -436t-253.5 -469h-94zM553 147q0 62 30 128.5t48 66.5q4 0 6 -1.5t2 -4.5l-9 -38.5t-9 -74.5q0 -69 41.5 -110t111.5 -41q62 0 101.5 44t39.5 115 q0 66 -42.5 110t-104.5 44q-14 0 -32.5 -3t-39.5 -9l-10 6q4 18 11 37.5t18 42.5q20 7 38.5 10.5t37.5 3.5q73 0 119 -61t46 -160q0 -114 -66 -191t-167 -77q-77 0 -123.5 44.5t-46.5 118.5z" />
<glyph unicode="&#x26;" horiz-adv-x="967" d="M117 178q0 67 54 132t155 118q-59 71 -89 129.5t-30 101.5q0 68 57 144t78 76q4 -1 7 -3.5t3 -5.5q0 -2 -9 -14q-54 -68 -54 -127q0 -66 118 -219q7 -10 11 -14q58 41 86 85t28 95q0 57 -36.5 86.5t-114.5 36.5l-4 8q18 29 34.5 50t35.5 40q91 -2 138.5 -40t47.5 -109 q0 -65 -49 -133t-150 -144q55 -73 112.5 -142t119.5 -136q37 36 56 73t19 74q0 43 -22.5 70.5t-56.5 27.5q-21 0 -43 -9t-25 -9t-5.5 1.5t-2.5 4.5q0 14 51 43t86 29q37 0 61.5 -25.5t24.5 -64.5q0 -55 -31.5 -113t-93.5 -121q58 -62 90 -84t57 -22q31 0 59 23.5t30 23.5 q3 -1 5 -2.5t3 -3.5q0 -20 -64.5 -69.5t-118.5 -49.5q-37 0 -125 80q-14 13 -22 20q-84 -59 -144.5 -81.5t-123.5 -22.5q-94 0 -153.5 54t-59.5 138zM250 221q0 -72 49 -120t123 -48q40 0 78 15t82 47q-55 62 -110.5 130t-125.5 158q-46 -34 -71 -81.5t-25 -100.5z" />
<glyph unicode="'" horiz-adv-x="346" d="M92 1364q0 47 20.5 72.5t59.5 25.5t59.5 -24.5t20.5 -71.5q0 -16 -0.5 -25t-1.5 -17l-62 -456h-30l-62 455v4q-4 25 -4 37z" />
<glyph unicode="(" horiz-adv-x="612" d="M190 131q0 318 144.5 622t433.5 593l18 -17q-242 -327 -359.5 -660t-117.5 -692q0 -159 18 -302t54 -269l-23 -12q-81 161 -124.5 351t-43.5 386z" />
<glyph unicode=")" horiz-adv-x="612" d="M-121 -590q242 327 359.5 660.5t117.5 691.5q0 159 -18 302t-53 269l22 13q82 -162 125 -351.5t43 -386.5q0 -318 -144.5 -622t-432.5 -592z" />
<glyph unicode="*" horiz-adv-x="807" d="M215 1036l35 111l242 -115l-29 266h100l-28 -266l241 115l35 -111l-262 -45l186 -196l-96 -70l-125 238l-129 -238l-94 70l184 196z" />
<glyph unicode="+" horiz-adv-x="1706" d="M254 561v98h551v562h98v-562h549v-98h-549v-561h-98v561h-551z" />
<glyph unicode="," horiz-adv-x="379" d="M-61 -498q83 132 125 251.5t42 223.5q0 39 -5 76t-15 72l152 22q1 -14 1.5 -27t0.5 -24q0 -132 -67 -275t-216 -329z" />
<glyph unicode="-" horiz-adv-x="588" d="M90 252l35 104h385l-35 -104h-385z" />
<glyph unicode="." horiz-adv-x="379" d="M113 -18q0 40 3 78t9 75q23 6 50 9t63 3h30q0 -33 -3 -69t-11 -84q-23 -7 -48.5 -9.5t-62.5 -2.5h-30z" />
<glyph unicode="/" horiz-adv-x="563" d="M0 -190l535 1488h73l-534 -1488h-74z" />
<glyph unicode="0" d="M33 184q0 99 68.5 196t97.5 97q4 0 7 -3t3 -7t-13 -26q-61 -103 -61 -181q0 -93 44 -147t118 -54q77 0 130.5 67.5t53.5 166.5q0 100 -50 151.5t-148 51.5q-7 0 -15.5 -0.5t-17.5 -1.5l-8 8q10 23 24 46t31 46h4q29 4 43 4q93 0 147 -62t54 -169q0 -156 -97.5 -276 t-216.5 -120q-92 0 -145 57.5t-53 155.5z" />
<glyph unicode="1" horiz-adv-x="487" d="M14 393q0 4 74 56t145 114q32 11 66.5 18.5t70.5 12.5q-5 -146 -13.5 -295t-20.5 -307q-29 -9 -60 -14t-65 -6q16 182 32 540l1 6q-85 -65 -145 -105t-72 -40q-5 0 -9 7t-4 13z" />
<glyph unicode="2" d="M57 -12q132 128 213.5 245t81.5 170q0 34 -18 50t-55 16q-42 0 -91.5 -17t-101.5 -49l31 121q58 34 112 52t101 18q63 0 100 -30t37 -81q0 -56 -62 -151t-187 -231q30 6 57.5 10t50.5 4q36 0 80.5 -8.5t99.5 -26.5q-13 -25 -25 -52.5t-24 -56.5q-55 15 -106 22t-101 7 q-38 0 -83 -6.5t-104 -20.5z" />
<glyph unicode="3" horiz-adv-x="487" d="M37 -301q0 9 43 33q41 22 67 39q86 53 127 106.5t41 112.5q0 67 -50.5 115.5t-139.5 64.5v16q85 54 134.5 119t49.5 119q0 31 -18 46t-55 15q-32 0 -81.5 -15t-107.5 -42l27 113q51 25 101.5 39t90.5 14q60 0 94.5 -28.5t34.5 -76.5q0 -54 -39.5 -115.5t-126.5 -140.5 q95 -19 145 -67t50 -119q0 -76 -44 -137t-149 -127q-65 -42 -118.5 -69t-65.5 -27q-4 0 -7 3.5t-3 8.5z" />
<glyph unicode="4" d="M45 102q0 28 39.5 110.5t114.5 209.5q65 113 88.5 147.5t31.5 34.5q7 0 11 -3t4 -7q0 -7 -15 -38t-71 -134l-20 -38q-99 -186 -99 -212q0 -21 34 -30t159 -13l30 356q26 15 52 28.5t53 25.5l-35 -409q39 1 59 3t35 4l-16 -92q-4 0 -12 -1q-52 -7 -74 -7l-25 -320 q-27 -11 -53.5 -18.5t-52.5 -11.5l30 350h-47q-110 0 -165.5 16.5t-55.5 48.5z" />
<glyph unicode="5" horiz-adv-x="526" d="M39 -301q0 9 48 36t79 48q90 63 136 119t46 104q0 67 -69 114t-211 77q32 120 57.5 208.5t48.5 163.5q85 0 169 6t164 17l-40 -119q-73 -11 -144 -17t-141 -8q-10 -29 -20 -65t-21 -86q158 -34 233 -90.5t75 -140.5q0 -65 -54.5 -135.5t-167.5 -149.5 q-55 -39 -109.5 -66.5t-66.5 -27.5q-4 0 -8 3.5t-4 8.5z" />
<glyph unicode="6" d="M49 246q0 113 68 236t221 284q62 67 94.5 97t42.5 30q5 0 7.5 -3t2.5 -7q0 -8 -46 -58t-81 -92q-104 -129 -150 -233t-46 -205q0 -111 48 -178.5t126 -67.5q63 0 103 47.5t40 122.5q0 62 -44.5 104t-112.5 42q-18 0 -38.5 -3t-45.5 -10l-11 8q15 28 35.5 54.5t46.5 52.5 q13 2 25 3t28 1q79 0 128 -55.5t49 -145.5q0 -123 -81 -211t-188 -88q-98 0 -159.5 76t-61.5 199z" />
<glyph unicode="7" horiz-adv-x="530" d="M37 492l67 108q60 -13 111.5 -20t97.5 -7q40 0 92 4t111 11q-161 -358 -238 -558t-108 -335l-98 -8q98 246 181.5 443.5t145.5 330.5l-6 -1q-79 -7 -112 -7q-79 0 -138 9.5t-106 29.5z" />
<glyph unicode="8" d="M33 170q0 60 43 112.5t192 151.5q-90 63 -126 107.5t-36 91.5q0 63 55.5 135t74.5 72q3 0 6.5 -3t3.5 -8q0 -3 -13 -20q-45 -61 -45 -109q0 -40 39 -84.5t127 -105.5q49 45 72 85.5t23 80.5q0 53 -35 85t-92 32q-11 0 -27 -3t-21 -4l-5 10q13 26 27 47t29 39q9 2 23 4 q27 5 35 5q68 0 112 -43t44 -109q0 -52 -34 -106.5t-126 -143.5q79 -53 116 -105t37 -108q0 -124 -83.5 -214.5t-198.5 -90.5q-89 0 -153 59t-64 140zM154 195q0 -72 44 -117t115 -45q61 0 107.5 52t46.5 118q0 53 -32 95.5t-142 117.5q-80 -68 -109.5 -116.5t-29.5 -104.5z " />
<glyph unicode="9" d="M41 293q0 123 80.5 211t187.5 88q99 0 160 -76t61 -199q0 -112 -67.5 -234t-220.5 -284q-64 -67 -96.5 -97t-41.5 -30q-2 0 -5.5 2.5t-4.5 6.5q0 8 47 59.5t80 91.5q103 126 149 231t46 209q0 109 -47.5 175.5t-122.5 66.5q-64 0 -106 -46t-42 -116q0 -68 44 -110.5 t114 -42.5q15 0 34.5 3t51.5 11l10 -10q-15 -28 -35 -54t-47 -53q-12 -2 -24.5 -3t-28.5 -1q-79 0 -127.5 55.5t-48.5 145.5z" />
<glyph unicode=":" horiz-adv-x="473" d="M139 -18q0 39 3.5 78t9.5 75q22 6 49 9t63 3h31q0 -33 -3.5 -69t-10.5 -84q-24 -7 -49.5 -9.5t-61.5 -2.5h-31zM172 393q0 34 3.5 72t11.5 82q27 7 56.5 10.5t61.5 3.5h23q0 -39 -3 -76.5t-10 -77.5q-27 -7 -57 -10.5t-61 -3.5h-25z" />
<glyph unicode=";" horiz-adv-x="473" d="M-6 -498q83 132 125.5 251.5t42.5 223.5q0 39 -5 76t-16 72l152 22q1 -14 1.5 -27t0.5 -24q0 -132 -67 -275t-216 -329zM172 393q0 34 3.5 72t11.5 82q27 7 56.5 10.5t61.5 3.5h23q0 -39 -3 -76.5t-10 -77.5q-27 -7 -57 -10.5t-61 -3.5h-25z" />
<glyph unicode="&#x3c;" horiz-adv-x="1706" d="M264 569v82l1178 484v-109l-1022 -416l1022 -413v-109z" />
<glyph unicode="=" horiz-adv-x="1706" d="M254 375v98h1198v-98h-1198zM254 748v98h1198v-98h-1198z" />
<glyph unicode="&#x3e;" horiz-adv-x="1706" d="M264 88v109l1022 413l-1022 416v109l1178 -484v-82z" />
<glyph unicode="?" horiz-adv-x="915" d="M256 950q0 111 101 185.5t251 74.5q136 0 220.5 -54.5t84.5 -141.5q0 -107 -190 -253q-87 -66 -129 -106q-55 -52 -78.5 -129t-24.5 -215q-20 -5 -41.5 -7.5t-50.5 -2.5h-28q-1 13 -2 34q-2 33 -2 42q0 150 175 300l14 12q109 95 160.5 170t51.5 138q0 74 -52 120 t-134 46q-99 0 -156 -47t-57 -127q0 -46 32 -77t78 -31q30 0 57 16t31 16q5 0 8 -2.5t3 -7.5q0 -26 -58 -64t-112 -38q-70 0 -111 40.5t-41 108.5zM344 -18q0 39 3 78t9 75q23 6 50 9t63 3h31q0 -33 -3.5 -69t-11.5 -84q-23 -7 -48.5 -9.5t-61.5 -2.5h-31z" />
<glyph unicode="@" horiz-adv-x="2019" d="M147 537q0 204 86 380t250 312q132 110 290.5 165.5t340.5 55.5q345 0 552.5 -187t207.5 -497q0 -157 -58 -295t-165 -235q-59 -55 -123.5 -83t-130.5 -28q-96 0 -147.5 54t-57.5 161q-59 -106 -138 -160.5t-173 -54.5q-121 0 -196 92.5t-75 243.5q0 106 49 213t138 194 q67 66 144 102t151 36q86 0 142.5 -51t78.5 -148l55 182h131l-170 -606q-11 -39 -14.5 -61.5t-3.5 -42.5q0 -54 26 -82.5t74 -28.5q47 0 108.5 30t114.5 81q93 88 145 219t52 278q0 284 -194 457.5t-511 173.5q-176 0 -328.5 -58.5t-271.5 -170.5q-133 -126 -201.5 -296 t-68.5 -376q0 -176 56 -304.5t177 -232.5q116 -100 264.5 -151t321.5 -51q167 0 323.5 53t293.5 155l30 -34q-147 -109 -311.5 -164.5t-341.5 -55.5q-189 0 -340.5 46t-273.5 139q-151 115 -229.5 275.5t-78.5 355.5zM739 379q0 -96 43 -152.5t115 -56.5q67 0 129 44.5 t119 133.5q57 91 91 199.5t34 200.5q0 95 -50.5 158t-125.5 63q-56 0 -101.5 -31t-93.5 -102q-73 -111 -116.5 -236t-43.5 -221z" />
<glyph unicode="A" horiz-adv-x="1493" d="M121 442q0 178 78 348.5t223 309.5q52 49 97 84t54 35q4 0 7.5 -2.5t3.5 -4.5q0 -5 -28.5 -32t-49.5 -52q-126 -144 -188 -293t-62 -309q0 -209 100 -337t262 -128q193 0 315 161.5t134 436.5l12 326v16q0 104 -55 169t-143 65q-101 0 -174.5 -67t-73.5 -160 q0 -61 31.5 -95t87.5 -34q67 0 124 56q10 11 13 11q4 0 6 -2t2 -6q0 -45 -69.5 -102.5t-149.5 -57.5q-70 0 -113 42.5t-43 111.5q0 136 135 252t293 116q101 0 171.5 -53t92.5 -147l70 145q4 8 9 19q20 43 28 43q4 0 8 -5t4 -10q0 -2 -3 -9q-2 -5 -3 -7l-41 -84 q-33 -69 -52 -168t-26 -238l-26 -529q-1 -16 -1.5 -31.5t-0.5 -35.5q0 -63 19.5 -89.5t66.5 -26.5q46 0 92.5 31.5t81.5 87.5q20 32 37 69t20 37t6.5 -3.5t3.5 -6.5q0 -10 -19.5 -52.5t-47.5 -86.5q-56 -87 -137.5 -138t-161.5 -51q-56 0 -81.5 31.5t-25.5 101.5 q0 12 0.5 29t1.5 37l6 178q-85 -177 -217.5 -274t-287.5 -97q-189 0 -302.5 129.5t-113.5 345.5z" />
<glyph unicode="B" horiz-adv-x="1522" d="M113 276q0 85 41.5 138t105.5 53q43 0 70.5 -26.5t27.5 -67.5q0 -43 -29 -70t-77 -27q-7 -18 -10.5 -36.5t-3.5 -36.5q0 -89 61 -147t156 -58q76 0 137 33t106 98q71 105 85 372q1 20 1 29q1 19 3 56q15 307 100 440q44 69 191 212l3 3q-37 12 -74 18.5t-75 6.5 q-212 0 -361 -124.5t-149 -293.5q0 -59 23 -105.5t67 -78.5q18 -15 46 -22.5t28 -14.5q0 -6 -4 -9.5t-11 -3.5q-112 0 -196 69t-84 171q0 85 56.5 169t158.5 151q94 61 207.5 93.5t230.5 32.5q210 0 346.5 -93t136.5 -232q0 -105 -97.5 -196t-258.5 -134q189 -20 286 -102 t97 -221q0 -157 -104.5 -259t-270.5 -102q-83 0 -164 34.5t-81 63.5q0 6 2 8.5t8 2.5q1 0 68.5 -33t140.5 -33q119 0 190.5 79.5t71.5 213.5q0 145 -106 229t-289 84q-5 -176 -20.5 -257.5t-49.5 -143.5q-60 -110 -170.5 -179t-224.5 -69q-151 0 -246.5 88.5t-95.5 226.5z M918 731q0 -13 1 -41t1 -43q162 8 264 93t102 210q0 92 -46 163t-134 118q-102 -87 -145 -198.5t-43 -301.5z" />
<glyph unicode="C" horiz-adv-x="1221" d="M147 506q0 163 70 320t195 274q102 98 223.5 149t249.5 51q167 0 275 -84t108 -212q0 -130 -117 -228t-272 -98q-92 0 -147.5 44t-55.5 116q0 80 72.5 145.5t132.5 65.5q3 -1 5 -2.5t3 -4.5l-46 -52q-46 -51 -46 -124q0 -62 39 -100.5t102 -38.5q85 0 140 63.5t55 163.5 q0 139 -77.5 221t-207.5 82q-84 0 -166.5 -34t-151.5 -97q-114 -102 -179.5 -251.5t-65.5 -307.5q0 -242 140.5 -389t369.5 -147q105 0 195 40.5t161 121.5q27 30 51 69t29 39q4 0 6 -1.5t2 -4.5q0 -10 -26 -54t-62 -85q-86 -98 -198.5 -146.5t-250.5 -48.5 q-246 0 -400.5 152t-154.5 393z" />
<glyph unicode="D" horiz-adv-x="1671" d="M92 438q0 127 47 253t137 241q140 179 328.5 273.5t407.5 94.5q290 0 471.5 -178t181.5 -456q0 -158 -60.5 -301t-172.5 -252q-67 -64 -144 -101t-141 -37q-71 0 -111.5 32.5t-40.5 88.5q0 136 427 339q69 32 105 50q2 18 2.5 34.5t0.5 35.5q0 229 -89.5 399.5 t-252.5 253.5q-110 -95 -152.5 -182t-42.5 -244q0 -62 2 -133.5t2 -81.5q0 -163 -30 -262t-101 -182q-67 -79 -156 -120.5t-194 -41.5q-181 0 -302.5 135t-121.5 342zM242 393q0 -181 82.5 -289t218.5 -108q70 0 129.5 37t101.5 108q71 119 77 446q1 25 1 38 q6 216 74.5 337.5t236.5 256.5q-49 20 -98.5 30.5t-103.5 10.5q-136 0 -259.5 -58t-222.5 -168q-111 -124 -174 -293.5t-63 -347.5zM1135 141q0 -40 27.5 -65t72.5 -25q101 0 182 109t107 286q-223 -102 -306 -169t-83 -136z" />
<glyph unicode="E" horiz-adv-x="995" d="M119 285q0 151 130.5 271t358.5 177q-166 53 -249 128.5t-83 176.5q0 114 94 187t242 73q132 0 217.5 -64.5t85.5 -158.5q0 -72 -61.5 -124t-130.5 -52q-7 0 -11.5 1t-4.5 3q0 3 14 15q84 69 84 159q0 82 -51.5 133.5t-132.5 51.5q-90 0 -147.5 -63t-57.5 -163 q0 -81 41 -144t123 -106q33 -18 77.5 -30.5t44.5 -24.5q0 -9 -46.5 -20.5t-86.5 -28.5q-137 -58 -221 -173.5t-84 -244.5q0 -116 69.5 -188t180.5 -72q120 0 203.5 80.5t83.5 194.5q0 76 -39.5 121.5t-106.5 45.5q-11 0 -25.5 -3t-17.5 -3t-6.5 3t-3.5 6q0 12 45 28.5 t98 16.5q87 0 140 -55.5t53 -145.5q0 -126 -129 -229t-299 -103t-280.5 92t-110.5 232z" />
<glyph unicode="F" horiz-adv-x="1217" d="M104 287q0 86 46.5 139t119.5 53q49 0 79 -28t30 -74q0 -44 -33.5 -68.5t-93.5 -25.5q-8 -18 -12 -38t-4 -42q0 -85 66.5 -146t162.5 -61q123 0 213.5 75.5t124.5 207.5q22 85 32 286t42 307q33 115 102 191t111 76q4 0 6.5 -1.5t3.5 -4.5q0 -6 -23.5 -23t-38.5 -31 q-33 -31 -48 -74.5t-15 -107.5q0 -43 4 -135t4 -141q0 -35 -1.5 -69.5t-4.5 -69.5q26 174 96.5 272t167.5 98q54 0 88.5 -31.5t34.5 -81.5q0 -41 -20.5 -66.5t-53.5 -25.5q-28 0 -43.5 13.5t-15.5 37.5q0 11 4.5 22t13.5 25q-9 15 -23 22t-32 7q-108 0 -185 -269 q-15 -53 -24 -81q-66 -225 -201.5 -344t-324.5 -119q-153 0 -254 92.5t-101 233.5zM326 895q0 180 157.5 290.5t425.5 110.5h164q173 0 286 29t189 90q41 33 75.5 83t39.5 50q3 0 5.5 -2.5t2.5 -5.5q0 -12 -35 -70.5t-82 -109.5q-91 -99 -213 -146t-290 -47q-70 0 -186 8.5 t-163 8.5q-141 0 -226 -54t-85 -141q0 -56 41.5 -94.5t102.5 -38.5q100 0 155 127q8 18 10 18q4 0 7.5 -2t3.5 -4q0 -81 -70.5 -170.5t-163.5 -89.5q-70 0 -110.5 43t-40.5 117z" />
<glyph unicode="G" horiz-adv-x="1276" d="M164 657q0 135 69 265.5t193 230.5q89 71 196 108t222 37q168 0 262 -67.5t94 -188.5q0 -138 -107 -235.5t-259 -97.5q-93 0 -150 41.5t-57 107.5q0 71 83.5 142t127.5 71q4 0 6.5 -2t3.5 -6q0 -3 -16 -17q-87 -77 -87 -163q0 -61 37.5 -97t100.5 -36q85 0 141.5 67 t56.5 168q0 119 -82 190.5t-219 71.5q-197 0 -337 -152t-140 -362q0 -198 126 -324t323 -126q101 0 194.5 45t186.5 139l20 -2q9 -69 13.5 -130.5t4.5 -117.5q0 -319 -161.5 -505.5t-436.5 -186.5q-168 0 -275.5 72.5t-107.5 181.5q0 81 76 164.5t113 83.5q5 -1 8.5 -3.5 t3.5 -5.5q0 -2 -8 -12q-55 -71 -55 -172q0 -112 80.5 -190t201.5 -78q192 0 304 163.5t112 444.5q0 27 -2.5 62t-8.5 85q-84 -62 -175 -94t-187 -32q-208 0 -348.5 133t-140.5 329z" />
<glyph unicode="H" horiz-adv-x="1718" d="M80 199q0 71 34.5 117t86.5 46q43 0 70.5 -24t27.5 -62q0 -41 -27.5 -65.5t-74.5 -26.5q-1 -9 -1.5 -18t-0.5 -21q0 -62 42 -104.5t107 -42.5q162 0 288 230.5t126 545.5q0 216 -69 351t-177 135q-72 0 -121 -52t-49 -129q0 -64 36 -104.5t91 -40.5q54 0 106 49 q13 12 17 12t6 -1.5t2 -4.5q0 -30 -72.5 -91.5t-148.5 -61.5q-70 0 -112 43t-42 114q0 118 97.5 211.5t228.5 93.5q156 0 252 -131.5t96 -347.5q0 -22 -1.5 -47.5t-6.5 -78.5l250 -1q56 272 202 439t320 167q80 0 129 -37.5t49 -97.5q0 -53 -60.5 -99t-113.5 -46q-2 0 -2 2 q0 3 9 15q46 64 46 126q0 44 -29 71.5t-77 27.5q-148 0 -258.5 -229t-110.5 -562q0 -202 58.5 -312t164.5 -110q59 0 105.5 34t91.5 112q20 33 37 69.5t20 36.5t7 -3.5t4 -6.5q0 -7 -17.5 -45t-42.5 -80q-60 -102 -128 -152.5t-144 -50.5q-131 0 -211 121t-80 324 q0 49 5.5 108t17.5 133h-248q-54 -301 -215.5 -493.5t-352.5 -192.5q-102 0 -169.5 68.5t-67.5 169.5z" />
<glyph unicode="I" horiz-adv-x="891" d="M92 274q0 84 42.5 138.5t107.5 54.5q43 0 70.5 -25t27.5 -65q0 -45 -29.5 -73t-77.5 -28q-8 -18 -12 -35t-4 -34q0 -90 61 -149.5t156 -59.5q123 0 202 84t79 217q0 56 -47 222t-47 274q0 110 175 371l1 1q-83 -91 -186 -142.5t-201 -51.5q-35 0 -61 5t-50 15l-55 -239 q-2 -6 -4.5 -9t-6.5 -4q-3 1 -4.5 3t-1.5 6v6l47 250q-24 18 -36.5 43.5t-12.5 56.5q0 65 45 136t62 71q5 -1 6.5 -2.5t1.5 -3.5q0 -3 -5 -17q-22 -52 -22 -96q0 -64 57 -109t142 -45q73 0 156.5 49.5t150.5 133.5q29 36 59.5 80.5t34.5 44.5q5 -1 7.5 -3t3.5 -6 q0 -7 -29 -51q-152 -228 -152 -411q0 -87 42 -247t42 -239q0 -176 -116 -302t-275 -126q-149 0 -246.5 88.5t-97.5 222.5z" />
<glyph unicode="J" horiz-adv-x="887" d="M-6 -164q0 109 66 177.5t171 68.5q80 0 153 -36t73 -54q0 -3 -2 -5.5t-4 -2.5q-3 0 -14 6q-57 33 -109 33q-85 0 -140 -62t-55 -158q0 -107 60.5 -172t158.5 -65q145 0 245.5 131.5t100.5 327.5q0 108 -62.5 333t-62.5 342q0 101 36 201.5t136 261.5q-80 -88 -182 -139 t-198 -51q-36 0 -62.5 5t-50.5 15l-55 -239q-2 -6 -4.5 -9t-6.5 -4q-2 0 -4 2.5t-2 6.5v6l49 250q-25 18 -38 44t-13 56q0 65 45 136t62 71q5 -1 6.5 -2.5t1.5 -3.5q0 -3 -6 -17q-21 -52 -21 -96q0 -64 57 -109t142 -45q73 0 156.5 49.5t150.5 133.5q29 36 59.5 80.5 t34.5 44.5q5 -1 7.5 -3t3.5 -6q0 -7 -28 -49q-153 -228 -153 -442q0 -99 44 -323t44 -355q0 -295 -124.5 -470t-331.5 -175q-145 0 -239.5 88t-94.5 223z" />
<glyph unicode="K" horiz-adv-x="1602" d="M80 199q0 71 34.5 117t86.5 46q43 0 70.5 -24t27.5 -62q0 -41 -27.5 -65.5t-74.5 -26.5q-1 -9 -1.5 -18t-0.5 -21q0 -62 41.5 -104.5t105.5 -42.5q163 0 289.5 231t126.5 547q0 214 -69.5 345.5t-178.5 131.5q-71 0 -117.5 -51t-46.5 -129q0 -63 34 -101t89 -38 q54 0 106 49q13 12 17 12t6 -1.5t2 -4.5q0 -30 -72.5 -91.5t-148.5 -61.5q-70 0 -112 43t-42 114q0 118 97.5 211.5t228.5 93.5q157 0 252.5 -133t95.5 -354q0 -147 -43 -294t-121 -269q-90 -140 -196.5 -213.5t-221.5 -73.5q-102 0 -169.5 68.5t-67.5 169.5zM924 698v13 q141 86 222 197t81 218q0 34 -9.5 65t-27.5 60q30 14 60.5 29t60.5 31q30 -28 44.5 -64t14.5 -84q0 -88 -92 -199t-268 -235q107 -21 153 -84.5t66 -259.5q20 -192 56 -263t106 -71q41 0 77.5 32t81.5 110q20 33 37 69.5t21 36.5q2 0 5 -3.5t3 -6.5q0 -8 -19 -49.5 t-47 -85.5q-64 -107 -118.5 -150t-118.5 -43q-94 0 -142 78.5t-69 279.5q-3 30 -8 85q-25 268 -170 294z" />
<glyph unicode="L" horiz-adv-x="1337" d="M45 106q0 76 77 121t208 45q48 0 102.5 -8.5t124.5 -27.5q5 20 7.5 37.5t2.5 33.5q0 58 -41 216.5t-41 256.5q0 224 149 372t370 148q140 0 231.5 -77t91.5 -191q0 -117 -105.5 -207t-240.5 -90q-78 0 -126 39.5t-48 102.5q0 70 65 129t109 59q2 0 4 -2.5t2 -5.5 q0 -6 -17 -22q-57 -54 -57 -117t33 -99.5t90 -36.5q75 0 124.5 55t49.5 140q0 121 -75 196.5t-197 75.5q-151 0 -247.5 -95t-96.5 -247q0 -80 40 -245.5t40 -247.5q0 -44 -10.5 -94t-32.5 -109q101 -28 243.5 -94t192.5 -66q65 0 118 35t99 107q19 30 36 68t21 38t7.5 -3.5 t3.5 -6.5q0 -6 -18.5 -45.5t-43.5 -77.5q-57 -89 -149.5 -143t-186.5 -54q-70 0 -150.5 36.5t-217.5 135.5q-70 -90 -154 -135t-182 -45q-93 0 -149 40t-56 105zM180 123q0 -55 34.5 -86t94.5 -31q72 0 132.5 44t95.5 122q-57 33 -112 49.5t-110 16.5q-60 0 -97.5 -31.5 t-37.5 -83.5z" />
<glyph unicode="M" horiz-adv-x="2054" d="M80 199q0 71 34.5 117t86.5 46q43 0 70.5 -24t27.5 -62q0 -41 -27.5 -65.5t-74.5 -26.5q-1 -9 -1.5 -18t-0.5 -21q0 -62 41.5 -104.5t105.5 -42.5q163 0 289.5 231t126.5 547q0 214 -69.5 345.5t-178.5 131.5q-71 0 -117.5 -51t-46.5 -129q0 -63 34 -101t89 -38 q54 0 106 49q13 12 17 12t6 -1.5t2 -4.5q0 -30 -72.5 -91.5t-148.5 -61.5q-70 0 -112 43t-42 114q0 118 97.5 211.5t228.5 93.5q112 0 194 -68.5t121 -195.5q85 145 147.5 204.5t127.5 59.5q72 0 108.5 -50t36.5 -148q0 -20 -1.5 -41t-4.5 -41q54 132 124 206t140 74 q44 0 135.5 -47t137.5 -47q63 0 155 75q27 21 33 21q3 0 4.5 -2t1.5 -6q0 -5 -47.5 -52t-87.5 -93q-153 -176 -222 -345.5t-69 -367.5q0 -169 66 -277t166 -108q50 0 91.5 29.5t84.5 97.5q24 40 44 81.5t23 41.5t7 -3.5t4 -6.5q0 -6 -18.5 -44t-43.5 -81 q-58 -100 -122.5 -148.5t-139.5 -48.5q-128 0 -212.5 117t-84.5 297q0 183 101.5 374t330.5 431q-58 -35 -108 -53.5t-86 -18.5q-67 0 -127 55.5t-84 55.5q-56 0 -122.5 -118t-82.5 -286l-80 -833q-24 -3 -52 -9t-73 -18l84 950q4 39 6 68.5t2 46.5q0 93 -20.5 131.5 t-67.5 38.5q-38 0 -77.5 -37t-119.5 -158q13 -55 19 -101.5t6 -86.5q0 -148 -43 -295.5t-121 -269.5q-90 -141 -196 -214t-222 -73q-102 0 -169.5 68.5t-67.5 169.5z" />
<glyph unicode="N" horiz-adv-x="1712" d="M80 199q0 71 34.5 117t86.5 46q43 0 70.5 -24t27.5 -62q0 -41 -27.5 -65.5t-74.5 -26.5q-1 -9 -1.5 -18t-0.5 -21q0 -62 41.5 -104.5t105.5 -42.5q163 0 289.5 231t126.5 547q0 214 -69.5 345.5t-178.5 131.5q-71 0 -117.5 -51t-46.5 -129q0 -63 34 -101t89 -38 q54 0 106 49q13 12 17 12t6 -1.5t2 -4.5q0 -30 -72.5 -91.5t-148.5 -61.5q-70 0 -112 43t-42 114q0 118 97.5 211.5t228.5 93.5q112 0 194 -68.5t121 -195.5q75 140 144 202t147 62q53 0 150.5 -47t154.5 -47q75 0 169 76q25 20 30 20q3 0 4.5 -2.5t1.5 -5.5q0 -5 -47.5 -52 t-87.5 -93q-153 -176 -222 -345.5t-69 -367.5q0 -169 66 -277t166 -108q50 0 91.5 29.5t84.5 97.5q24 40 44 81.5t23 41.5t6.5 -3.5t3.5 -6.5q0 -7 -17 -45t-42 -80q-58 -100 -123.5 -148.5t-140.5 -48.5q-128 0 -212.5 117t-84.5 297q0 183 101.5 374t330.5 431 q-87 -51 -127 -66.5t-72 -15.5q-53 0 -131 54t-121 54q-50 0 -99 -48t-114 -163q13 -55 19 -101.5t6 -86.5q0 -148 -43 -295.5t-121 -269.5q-90 -141 -196 -214t-222 -73q-102 0 -169.5 68.5t-67.5 169.5z" />
<glyph unicode="O" horiz-adv-x="1247" d="M78 518q0 159 70.5 311.5t209.5 292.5q43 44 78 73.5t43 29.5q4 0 7 -2.5t3 -5.5q0 -4 -26 -31.5t-47 -55.5q-101 -129 -148 -259t-47 -281q0 -256 119.5 -415t310.5 -159q215 0 355.5 190.5t140.5 491.5q0 242 -93 394.5t-235 152.5q-96 0 -173 -73.5t-77 -165.5 q0 -60 33.5 -93.5t91.5 -33.5q57 0 113 50q18 15 22 15t6 -2t3 -8q0 -42 -71.5 -99t-150.5 -57q-69 0 -112 44t-43 116q0 135 135.5 247.5t306.5 112.5q175 0 274 -120t99 -334q0 -188 -63 -366t-177 -310q-86 -100 -203.5 -153.5t-250.5 -53.5q-219 0 -361.5 157.5 t-142.5 399.5z" />
<glyph unicode="P" horiz-adv-x="1327" d="M113 276q0 85 41.5 138t105.5 53q43 0 70.5 -26.5t27.5 -67.5q0 -43 -29 -70t-77 -27q-7 -18 -10.5 -36.5t-3.5 -36.5q0 -89 61 -147t156 -58q87 0 154 43t112 127q55 108 69 461l1 2q10 238 73.5 357t216.5 253q-37 12 -74 18.5t-75 6.5q-212 0 -361 -124.5t-149 -293.5 q0 -59 23 -105.5t67 -78.5q18 -15 46 -22.5t28 -14.5q0 -6 -4 -9.5t-11 -3.5q-112 0 -196 69t-84 171q0 85 56.5 169t158.5 151q94 61 207.5 93.5t230.5 32.5q210 0 346.5 -93t136.5 -232q0 -133 -133 -235t-374 -152q0 -9 1 -23.5t1 -21.5q0 -260 -131.5 -420t-335.5 -160 q-151 0 -246.5 88t-95.5 225zM918 713q0 -14 1 -45t1 -47q171 34 268.5 122t97.5 207q0 92 -46 163t-134 118q-103 -88 -145.5 -202.5t-42.5 -315.5z" />
<glyph unicode="Q" horiz-adv-x="1247" d="M78 518q0 159 70.5 311.5t209.5 292.5q43 44 78 73.5t43 29.5q4 0 7 -2.5t3 -5.5q0 -4 -26 -31.5t-47 -55.5q-102 -132 -148.5 -260.5t-46.5 -277.5q0 -111 24 -205t72 -172q72 39 135 58.5t115 19.5q95 0 173.5 -52.5t138.5 -154.5q130 89 199 247t69 365q0 241 -93 394 t-235 153q-96 0 -173 -73.5t-77 -165.5q0 -60 33.5 -93.5t91.5 -33.5q57 0 113 50q18 15 22 15t6 -2t3 -8q0 -41 -71 -98.5t-149 -57.5q-70 0 -113.5 44t-43.5 116q0 136 135 248t307 112q175 0 274 -120.5t99 -333.5q0 -248 -103 -466.5t-270 -326.5q170 -308 265.5 -404 t203.5 -96q80 0 128 45.5t48 120.5q0 11 -2 21.5t-10 33.5q-14 -12 -26 -17t-27 -5q-35 0 -55.5 20t-20.5 54q0 36 28 62t66 26q58 0 90.5 -38t32.5 -105q0 -112 -81.5 -188.5t-203.5 -76.5q-160 0 -283 106.5t-270 385.5q-53 -17 -105 -26t-101 -9q-220 0 -361 157 t-141 400zM338 182q53 -80 134 -124t177 -44q25 0 51.5 4t65.5 15q-51 98 -121 149t-153 51q-40 0 -77.5 -12.5t-76.5 -38.5z" />
<glyph unicode="R" horiz-adv-x="1651" d="M113 276q0 85 41.5 138t105.5 53q43 0 70.5 -26.5t27.5 -67.5q0 -43 -29 -70t-77 -27q-7 -18 -10.5 -36.5t-3.5 -36.5q0 -89 61 -147t156 -58q87 0 154 43t112 127q55 108 69 461l1 2q10 238 73.5 357t216.5 253q-37 12 -74 18.5t-75 6.5q-212 0 -361 -124.5t-149 -293.5 q0 -59 23 -105.5t67 -78.5q18 -15 46 -22.5t28 -14.5q0 -6 -4 -9.5t-11 -3.5q-112 0 -196 69t-84 171q0 85 56.5 169t158.5 151q94 61 207.5 93.5t230.5 32.5q210 0 346.5 -93t136.5 -232q0 -108 -90.5 -195.5t-265.5 -148.5q130 -32 184 -260q6 -25 9 -38 q41 -171 78 -226.5t96 -55.5q41 0 77.5 32t81.5 110q20 33 37 69.5t21 36.5q3 0 6.5 -3.5t3.5 -6.5q0 -8 -19.5 -49t-48.5 -86q-63 -105 -117.5 -148t-119.5 -43q-84 0 -129.5 63t-89.5 289q-34 179 -70 231.5t-106 74.5v18q138 18 229.5 107.5t91.5 203.5q0 92 -46 163 t-134 118q-101 -87 -142.5 -191.5t-43.5 -353.5q-1 -19 -1 -56q-2 -295 -71 -423q-58 -109 -167.5 -176.5t-225.5 -67.5q-151 0 -246.5 88t-95.5 225z" />
<glyph unicode="S" horiz-adv-x="952" d="M106 281q0 78 36.5 126t95.5 48q41 0 69.5 -26t28.5 -64q0 -40 -23 -64.5t-65 -30.5q-1 -3 -3.5 -18t-2.5 -25q0 -91 69.5 -156t175.5 -65q126 0 210.5 74t84.5 180q0 59 -29 111.5t-128 144.5l-207 193q-98 88 -128 145.5t-30 128.5q0 122 117.5 219.5t273.5 97.5 q145 0 244.5 -92.5t99.5 -222.5q0 -67 -32.5 -107t-85.5 -40q-43 0 -69 23.5t-26 62.5q0 35 21.5 57t60.5 27q3 23 3.5 33t0.5 18q0 79 -70.5 141t-168.5 62q-110 0 -186 -67.5t-76 -160.5q0 -50 24 -94.5t109 -124.5l194 -182q5 -5 15 -14q163 -152 163 -287 q0 -154 -116 -262.5t-285 -108.5q-153 0 -259 93.5t-106 226.5z" />
<glyph unicode="T" horiz-adv-x="1100" d="M104 287q0 86 46.5 139t119.5 53q49 0 79 -28t30 -74q0 -44 -33.5 -68.5t-93.5 -26.5q-9 -21 -12.5 -41.5t-3.5 -45.5q0 -82 69 -140.5t172 -58.5q120 0 209 75.5t119 200.5q20 85 29 288t43 312q33 115 102 191t111 76q4 0 6.5 -1.5t3.5 -4.5q0 -6 -23.5 -23t-38.5 -31 q-33 -31 -48 -74.5t-15 -107.5q0 -44 5 -144.5t5 -156.5q0 -293 -143 -464t-383 -171q-153 0 -254 92.5t-101 233.5zM326 895q0 180 157.5 290.5t425.5 110.5h164q173 0 286 29t189 90q41 33 75.5 83t39.5 50q3 0 5.5 -2.5t2.5 -5.5q0 -12 -35 -70.5t-82 -109.5 q-91 -99 -213 -146t-290 -47q-70 0 -186 8.5t-163 8.5q-141 0 -226 -54t-85 -141q0 -56 41.5 -94.5t102.5 -38.5q100 0 155 127q8 18 10 18q4 0 7.5 -2t3.5 -4q0 -81 -70.5 -170.5t-163.5 -89.5q-70 0 -110.5 43t-40.5 117z" />
<glyph unicode="U" horiz-adv-x="1712" d="M139 993q0 50 28 95t89 94q74 58 145 87t140 29q117 0 178 -69.5t61 -204.5q0 -32 -2.5 -63.5t-7.5 -63.5l-53 -389q-2 -13 -5 -36q-20 -150 -20 -214q0 -113 47 -175.5t131 -62.5q90 0 177 74.5t163 216.5q103 194 135 729q9 144 15 221q26 7 59 13.5t78 13.5l-70 -839 q-7 -87 -11.5 -158.5t-4.5 -110.5q0 -63 17.5 -94t52.5 -31q45 0 87.5 30.5t78.5 88.5q23 39 44 82t25 43q3 0 6.5 -3.5t3.5 -6.5q0 -8 -20 -50.5t-49 -88.5q-55 -91 -123.5 -140t-136.5 -49t-98.5 40.5t-30.5 131.5q0 31 1 53t3 45l16 162q-92 -211 -211.5 -321.5 t-257.5 -110.5q-119 0 -189.5 85.5t-70.5 232.5q0 23 4.5 68.5t11.5 101.5l60 479q4 27 6 51.5t2 46.5q0 101 -48 157t-134 56q-84 0 -143.5 -50.5t-59.5 -121.5q0 -54 35 -89.5t88 -35.5q54 0 106 46q13 11 17 11t7 -2t3 -4q0 -27 -73.5 -85t-149.5 -58q-68 0 -110 39.5 t-42 103.5z" />
<glyph unicode="V" horiz-adv-x="1450" d="M172 1159q0 63 42 101t112 38q53 0 155.5 -21.5t151.5 -21.5q85 0 159 63q14 11 17 11t5.5 -2.5t2.5 -5.5q0 -5 -24.5 -31t-38.5 -42q-78 -94 -111 -163.5t-33 -136.5q0 -117 145 -344q65 -102 97 -160q59 -107 95 -208.5t50 -204.5q26 42 75 122q343 557 343 777 q0 150 -67.5 237.5t-182.5 87.5q-94 0 -163.5 -58.5t-69.5 -135.5q0 -58 39 -98.5t94 -40.5q47 0 91 34q10 8 13 9q4 -1 6.5 -5t2.5 -8q0 -23 -63.5 -63.5t-133.5 -40.5q-76 0 -122 44t-46 116q0 120 119.5 205t292.5 85q157 0 253.5 -91.5t96.5 -239.5q0 -180 -276 -558 l-1 -1q-17 -24 -51 -69q-183 -247 -235 -355l-123 -23q-20 112 -58 213t-96 197q-38 62 -110 169q-152 228 -152 320q0 78 51.5 163.5t159.5 186.5q-49 -26 -97 -39.5t-95 -13.5q-39 0 -99.5 11.5t-81.5 11.5q-44 0 -69 -22.5t-25 -61.5q0 -28 13 -53l12 -25q0 -1 -2 -2.5 t-4 -1.5q-15 0 -39.5 47.5t-24.5 97.5z" />
<glyph unicode="W" horiz-adv-x="2054" d="M172 1157q0 64 42.5 102.5t111.5 38.5q53 0 155.5 -22.5t151.5 -22.5q85 0 159 63q14 11 17 11q2 0 4 -2.5t2 -5.5q0 -5 -27 -36q-21 -23 -34 -38q-78 -93 -111 -162.5t-33 -136.5q0 -115 141 -335q68 -106 101 -167q60 -109 95.5 -209.5t49.5 -203.5q78 127 145 238 t125 213q-5 8 -16 24q-174 259 -174 352q0 73 44 152t182 231l22 27q10 10 14 13l4 3q4 0 7.5 -3.5t3.5 -6.5q0 -4 -20 -33q-122 -171 -122 -299q0 -109 137 -321q44 -68 66 -105q81 -135 125.5 -251.5t61.5 -233.5q25 42 75 122q342 557 342 777q0 150 -67 236.5t-183 86.5 q-94 0 -163.5 -57.5t-69.5 -134.5q0 -58 39.5 -99.5t93.5 -41.5q47 0 91 34q10 8 14 9q3 -1 5.5 -4t2.5 -7q0 -23 -63.5 -64.5t-133.5 -41.5q-75 0 -121.5 44t-46.5 116q0 120 119.5 206t292.5 86q157 0 253.5 -91.5t96.5 -239.5q0 -96 -47.5 -201.5t-220.5 -343.5 q-18 -25 -53 -72q-191 -259 -242 -366l-123 -23q-21 121 -67 235t-119 226l-38 -51q-209 -287 -257 -387l-123 -23q-20 112 -59 215t-97 197q-36 59 -105 161q-155 231 -155 324q0 79 51.5 166t157.5 186q-52 -28 -98.5 -41.5t-91.5 -13.5q-39 0 -99.5 11.5t-81.5 11.5 q-44 0 -69 -22.5t-25 -61.5q0 -29 13 -54l12 -24q0 -2 -2.5 -3t-6.5 -1q-14 0 -37.5 47.5t-23.5 97.5z" />
<glyph unicode="X" horiz-adv-x="1493" d="M80 199q0 71 34.5 117t86.5 46q43 0 70.5 -24t27.5 -62q0 -41 -27.5 -65.5t-74.5 -26.5q-1 -9 -1.5 -18t-0.5 -21q0 -63 42 -106t107 -43q169 0 301.5 232.5t132.5 547.5q0 211 -75 347.5t-187 136.5q-74 0 -124 -54t-50 -131q0 -60 37 -100.5t90 -40.5q54 0 106 49 q13 12 17 12t6 -1.5t2 -4.5q0 -30 -72.5 -91.5t-148.5 -61.5q-70 0 -112 43t-42 114q0 118 97.5 211.5t228.5 93.5q161 0 255.5 -136.5t94.5 -373.5v-6q72 236 218.5 376t318.5 140q79 0 128.5 -37.5t49.5 -97.5q0 -53 -61 -99t-113 -46q-2 0 -2 2q0 3 10 16q47 64 47 119 q0 48 -30 76.5t-81 28.5q-43 0 -94.5 -27.5t-99.5 -77.5q-108 -111 -169.5 -278t-61.5 -349q0 -214 80.5 -344.5t211.5 -130.5q58 0 99 29.5t88 110.5q19 33 36 69.5t21 36.5q3 0 6.5 -3.5t3.5 -6.5q0 -7 -17 -45t-42 -80q-60 -102 -128 -152.5t-144 -50.5q-142 0 -234 141 t-92 367v25q-82 -247 -226 -390t-307 -143q-102 0 -169.5 68.5t-67.5 169.5z" />
<glyph unicode="Y" horiz-adv-x="1462" d="M139 993q0 50 28 95t89 94q74 58 145 87t140 29q118 0 178.5 -69.5t60.5 -206.5q0 -28 -2.5 -58t-7.5 -67l-53 -334q-4 -27 -6 -52.5t-2 -49.5q0 -99 46 -155t128 -56q187 0 292 212t105 597q0 83 -1 125t-3 78q34 8 68 14t71 10q-3 -515 -25.5 -833t-66.5 -473 q-63 -224 -201.5 -339.5t-343.5 -115.5q-164 0 -271.5 72.5t-107.5 181.5q0 81 76 164.5t113 83.5q5 -1 8.5 -3.5t3.5 -5.5q0 -2 -8 -12q-55 -71 -55 -172q0 -111 80 -189.5t198 -78.5q216 0 318 219t129 766q-76 -175 -181.5 -268t-228.5 -93q-127 0 -199.5 83t-72.5 229 q0 14 5.5 63t14.5 115l35 248q0 3 1 12q7 60 7 86q0 102 -47.5 157.5t-134.5 55.5q-84 0 -143.5 -50.5t-59.5 -121.5q0 -54 35 -89.5t88 -35.5q54 0 106 46q13 11 17 11t7 -2t3 -4q0 -27 -73.5 -85t-149.5 -58q-68 0 -110 39.5t-42 103.5z" />
<glyph unicode="Z" horiz-adv-x="1284" d="M98 -23q0 11 117 131q499 514 944 1078q-77 -53 -143.5 -78t-130.5 -25q-90 0 -258 67t-234 67q-73 0 -123.5 -45t-50.5 -107t44.5 -103.5t113.5 -41.5q76 0 134 67q12 14 15 14q2 0 4 -4.5t2 -9.5q0 -49 -60.5 -113.5t-133.5 -64.5t-119.5 53t-46.5 137q0 131 92 214 t234 83q65 0 227.5 -49t265.5 -49q158 0 285 112q13 11 14 11q3 0 6.5 -3.5t3.5 -6.5q0 -35 -299 -393t-704 -785q52 16 91 23.5t73 7.5q90 0 247.5 -68.5t233.5 -68.5q93 0 155 50.5t62 125.5q0 62 -42.5 103.5t-106.5 41.5q-59 0 -111 -42q-11 -9 -14 -9t-5.5 2.5 t-2.5 7.5q0 32 62 93t130 61q72 0 121 -51t49 -127q0 -134 -127.5 -239t-298.5 -105q-93 0 -251 54t-228 54q-101 0 -192 -66q-22 -16 -27 -16t-11 4t-6 8z" />
<glyph unicode="[" horiz-adv-x="612" d="M72 -602l340 1939h374l-12 -67h-262l-319 -1807h264l-13 -65h-372z" />
<glyph unicode="\" horiz-adv-x="563" d="M0 1298h74l534 -1488h-73z" />
<glyph unicode="]" horiz-adv-x="612" d="M-160 -602l10 65h265l317 1807h-262l10 67h375l-342 -1939h-373z" />
<glyph unicode="^" horiz-adv-x="2048" d="M412 897l528 565h166l526 -565h-88l-522 451l-524 -451h-86z" />
<glyph unicode="_" horiz-adv-x="1024" d="M0 -383h1024v-100h-1024v100z" />
<glyph unicode="`" horiz-adv-x="1024" d="M309 1026q0 21 16.5 37t39.5 16q16 0 32 -11t39 -40l242 -305h-49l-273 235q-29 26 -38 39.5t-9 28.5z" />
<glyph unicode="a" horiz-adv-x="809" d="M20 180q0 111 85 218.5t126 107.5q4 0 7.5 -3t3.5 -7t-15 -23q-94 -118 -94 -237q0 -72 41.5 -119t101.5 -47q64 0 100 50.5t36 141.5v113q0 59 -32 100.5t-89 59.5l-4 14q11 14 28 30.5t43 38.5q54 -6 89.5 -33t60.5 -79q41 54 63 78t31 24q4 0 7 -2.5t3 -5.5t-10 -21 q-80 -129 -80 -303q0 -100 25 -153t71 -53q35 0 67.5 29t70.5 94q20 32 36.5 68t20.5 36t6 -2t2 -6q0 -7 -17 -44t-42 -81q-55 -93 -114.5 -144t-112.5 -51q-49 0 -80.5 40.5t-38.5 112.5q-46 -73 -103 -113t-116 -40q-74 0 -125.5 60.5t-51.5 150.5z" />
<glyph unicode="b" horiz-adv-x="668" d="M-10 272q0 5 15 39q77 170 128 353q13 297 114 466.5t261 169.5q69 0 108 -41.5t39 -115.5q0 -120 -87.5 -226t-319.5 -255l-17 -306q0 -8 -1 -24.5t-1 -24.5q0 -125 37.5 -188.5t110.5 -63.5q72 0 121 70.5t49 177.5q0 96 -45.5 151.5t-122.5 55.5q-13 0 -22.5 -0.5 t-20.5 -1.5l61 96q3 0 8 1q32 3 44 3q86 0 140 -61.5t54 -161.5q0 -155 -116 -284.5t-238 -129.5q-90 0 -133 61t-43 187q0 7 1 22t1 23l14 307q-29 -84 -52 -145t-38 -92l-31 -66q-2 -4 -5 -6t-5 -2q-4 0 -6 3t-2 9zM248 682q161 107 231 203t70 207q0 70 -28.5 112.5 t-76.5 42.5q-87 0 -134.5 -135.5t-61.5 -429.5z" />
<glyph unicode="c" horiz-adv-x="582" d="M37 217q0 169 102 283t252 114q52 0 91 -16.5t69 -50.5q-23 -31 -43.5 -52t-42.5 -36q-36 43 -77.5 66.5t-82.5 23.5q-71 0 -119.5 -66t-48.5 -166q0 -107 55.5 -176t139.5 -69q55 0 107 32t89 89q21 31 37.5 68.5t20.5 37.5q3 0 6.5 -3.5t3.5 -6.5q0 -9 -17 -46.5 t-42 -78.5q-57 -95 -128 -144t-153 -49q-99 0 -159 67.5t-60 178.5z" />
<glyph unicode="d" d="M0 1010q0 12 59 31.5t125 19.5q168 0 279.5 -150t111.5 -381q0 -223 -107.5 -391t-236.5 -168q-90 0 -144 60.5t-54 161.5q0 87 40.5 164t119.5 141q50 40 107 67t83 27q1 0 2.5 -2t1.5 -4q0 -5 -41 -30t-80 -58q-55 -48 -85.5 -112.5t-30.5 -133.5q0 -81 38.5 -131.5 t100.5 -50.5q89 0 150 95.5t61 244.5q0 245 -126 423.5t-292 178.5q-26 0 -50.5 -5.5t-25.5 -5.5q-3 1 -4.5 3.5t-1.5 5.5z" />
<glyph unicode="e" horiz-adv-x="571" d="M23 182q0 166 120 298t263 132q58 0 92 -30t34 -80q0 -83 -78.5 -130.5t-308.5 -90.5q-1 -11 -1.5 -20t-0.5 -17q0 -81 44.5 -126.5t121.5 -45.5q63 0 116.5 31t92.5 90q20 29 36.5 67.5t20.5 38.5t7.5 -3.5t3.5 -6.5q0 -7 -17.5 -45.5t-42.5 -77.5 q-58 -94 -134.5 -144.5t-162.5 -50.5q-96 0 -151 56.5t-55 154.5zM150 311q129 29 193.5 75.5t64.5 109.5q0 27 -17 45t-43 18q-63 0 -121.5 -71t-76.5 -177z" />
<glyph unicode="f" horiz-adv-x="416" d="M-10 272q0 5 15 39q77 170 128 353q13 297 114 466.5t261 169.5q69 0 108 -41.5t39 -115.5q0 -114 -77 -212.5t-324 -268.5l-4 -78h190v-39h-190q-14 -294 -24 -566t-17 -529l-125 -48q9 219 19.5 481t25.5 688q-29 -84 -52 -145t-38 -92l-31 -66q-2 -4 -5 -6t-5 -2 q-4 0 -6 3t-2 9zM252 685q160 109 228.5 204t68.5 203q0 70 -28.5 112.5t-76.5 42.5q-89 0 -135 -133.5t-57 -428.5z" />
<glyph unicode="g" horiz-adv-x="694" d="M20 180q0 111 85 218.5t126 107.5q4 0 7.5 -3t3.5 -7t-15 -23q-94 -118 -94 -237q0 -70 37 -115t94 -45q48 0 90.5 27.5t87.5 89.5l9 202v2q0 43 -45.5 83.5t-103.5 41.5l-11 15q13 20 28.5 37.5t34.5 33.5q2 0 6 1q30 3 46 3q37 0 74.5 -23.5t62.5 -64.5q17 38 32 59 t25 21q4 0 7 -4.5t3 -9.5q0 -3 -3 -12q-33 -106 -38 -277l-8 -217q59 66 98 140.5l39 74.5q3 0 7 -3.5t4 -6.5q0 -22 -45.5 -102t-104.5 -140v-35q0 -294 -96.5 -452t-276.5 -158q-68 0 -109.5 33.5t-41.5 87.5q0 103 349 388l48 40l8 180q-88 -96 -139.5 -129t-103.5 -33 q-74 0 -125.5 60.5t-51.5 150.5zM143 -442q0 -48 28 -77.5t73 -29.5q96 0 139.5 105.5t48.5 363.5q-158 -130 -223.5 -213t-65.5 -149z" />
<glyph unicode="h" horiz-adv-x="696" d="M-10 272q0 5 15 39q77 170 128 353q13 297 114 466.5t261 169.5q69 0 108 -41.5t39 -115.5q0 -120 -87.5 -226t-319.5 -255l-10 -254q44 90 106.5 140t130.5 50q88 0 140.5 -61.5t52.5 -163.5q0 -146 -90.5 -272t-186.5 -126q-39 0 -60.5 24t-21.5 67q0 72 66 123.5 t196 80.5v6q0 106 -46 174t-115 68q-82 0 -129.5 -85t-55.5 -245l-8 -184l-125 -33q12 152 21 298.5t16 301.5q-29 -84 -52 -145t-38 -92l-31 -66q-2 -4 -5 -6t-5 -2q-4 0 -6 3t-2 9zM248 682q161 107 231 203t70 207q0 70 -28.5 112.5t-76.5 42.5q-87 0 -134.5 -135.5 t-61.5 -429.5zM399 84q0 -25 12.5 -39t34.5 -14q43 0 81.5 62t43.5 150q-88 -31 -130 -69.5t-42 -89.5z" />
<glyph unicode="i" horiz-adv-x="451" d="M-10 272q0 4 13 33q61 132 103 273q35 9 69.5 15t69.5 9q-17 -182 -23.5 -276.5t-6.5 -153.5q0 -60 15.5 -86.5t50.5 -26.5q30 0 55 26t65 108q15 29 32 67.5t22 38.5q4 0 6 -2t2 -6q0 -5 -16.5 -46.5t-38.5 -88.5q-45 -94 -91.5 -134t-109.5 -40q-60 0 -87.5 41 t-27.5 133q0 10 0.5 19.5t1.5 19.5l31 364q-19 -59 -41 -116t-45 -109l-31 -66q-2 -4 -5 -6t-5 -2q-4 0 -6 3t-2 9zM141 838v49q0 20 9 31t26 14l70 16q2 0 6.5 1t5.5 1q15 0 21 -8.5t6 -32.5v-47q0 -21 -8 -31.5t-25 -13.5l-72 -16q-3 0 -7.5 -1t-6.5 -1q-13 0 -18.5 8 t-6.5 31z" />
<glyph unicode="j" horiz-adv-x="348" d="M-328 -446q0 73 80 155t342 256q8 114 15.5 263t15.5 333q-19 -60 -40.5 -116.5t-45.5 -110.5l-31 -66q-2 -4 -5 -6t-5 -2q-4 0 -6 3t-2 9q0 4 13 33q61 132 104 273q33 9 68 15t70 9l-30 -518q59 66 98 140.5l39 74.5q3 0 6.5 -3.5t3.5 -6.5q0 -22 -46 -102.5 t-105 -139.5q-10 -335 -97 -490t-266 -155q-77 0 -126.5 42.5t-49.5 109.5zM-217 -424q0 -56 31.5 -90.5t83.5 -34.5q94 0 136 97.5t56 381.5q-190 -139 -248.5 -210.5t-58.5 -143.5zM141 838v49q0 20 9 31t26 14l70 16q2 0 6.5 1t5.5 1q15 0 21 -8.5t6 -32.5v-47 q0 -21 -8 -31.5t-25 -13.5l-72 -16q-3 0 -7.5 -1t-6.5 -1q-13 0 -18.5 8t-6.5 31z" />
<glyph unicode="k" horiz-adv-x="795" d="M-10 272q0 5 15 39q77 170 128 353q13 297 114 466.5t261 169.5q69 0 108 -41.5t39 -115.5q0 -119 -91.5 -229t-317.5 -255l-39 -626q42 282 119.5 430.5t181.5 148.5q41 0 67.5 -27.5t26.5 -70.5q0 -57 -50.5 -110.5t-145.5 -96.5q56 -7 79.5 -26t34.5 -70q6 -24 15 -64 q20 -96 61 -96q28 0 61 31t74 96q24 39 44 80t24 41q3 0 6.5 -3.5t3.5 -6.5q0 -7 -16 -42t-39 -75q-63 -105 -117 -153t-111 -48q-55 0 -79 34.5t-31 137.5v1q-7 100 -78 135v22q64 13 104.5 57.5t40.5 100.5q0 28 -14 46.5t-35 18.5q-61 0 -112 -123.5t-99 -388.5l-129 -22 q9 108 17 239.5t18 341.5q-29 -84 -52 -145t-38 -92l-31 -66q-2 -4 -5 -6t-5 -2q-4 0 -6 3t-2 9zM248 686q157 99 229 196t72 210q0 70 -28.5 112.5t-76.5 42.5q-86 0 -133 -133t-63 -428z" />
<glyph unicode="l" horiz-adv-x="451" d="M-10 272q0 5 15 39q77 170 128 353q13 297 114 466.5t261 169.5q69 0 108 -41.5t39 -115.5q0 -120 -92.5 -232t-312.5 -252l-12 -301q-1 -10 -2 -30q-3 -77 -3 -107q0 -71 15.5 -104t48.5 -33q25 0 50 26t61 95q14 26 28 60t19 34q3 0 6.5 -3.5t3.5 -6.5t-7 -17.5 t-12 -25.5l-20 -47q-58 -131 -97.5 -175t-88.5 -44q-62 0 -92.5 54t-30.5 165q0 7 1 21.5t1 23.5l16 336q-31 -85 -56.5 -149.5t-39.5 -96.5l-31 -66q-2 -4 -5 -6t-5 -2q-4 0 -6 3t-2 9zM252 685q160 109 228.5 204t68.5 203q0 70 -28.5 112.5t-76.5 42.5q-89 0 -135 -133.5 t-57 -428.5z" />
<glyph unicode="m" horiz-adv-x="1174" d="M-10 272q0 4 13 33q61 132 103 273q35 9 69.5 15t69.5 9q-12 -173 -25 -312t-27 -263q75 305 152.5 445t170.5 140q44 0 65 -28.5t21 -87.5q0 -12 -1.5 -33t-4.5 -49l-37 -387q76 307 152.5 446t169.5 139q45 0 65.5 -28t20.5 -92l-3 -26q-2 -26 -4 -53l-12 -217 q-1 -9 -1.5 -18t-0.5 -22q0 -44 11.5 -65t35.5 -21q29 0 57.5 26.5t69.5 96.5q20 33 37 69.5t21 36.5q3 0 6.5 -3.5t3.5 -6.5q0 -6 -17.5 -45t-42.5 -80q-51 -86 -105 -131t-103 -45q-47 0 -74 31.5t-27 86.5q0 2 1.5 21.5l4.5 58.5l13 199v6q4 43 4 60q0 26 -10.5 39.5 t-30.5 13.5q-50 0 -112.5 -135.5t-110.5 -358.5l-138 -22l33 397q1 10 1.5 24t0.5 42q0 26 -9.5 39.5t-29.5 13.5q-50 0 -112 -135.5t-111 -358.5l-139 -22q19 175 31 312.5t20 260.5q-19 -60 -40.5 -116.5t-45.5 -110.5l-31 -66q-2 -4 -5 -6t-5 -2q-4 0 -6 3t-2 9z" />
<glyph unicode="n" horiz-adv-x="809" d="M-10 272q0 4 13 33q61 132 103 273q35 9 69.5 15t69.5 9q-12 -173 -25 -312t-27 -263q75 305 152.5 445t170.5 140q46 0 66 -28t20 -92q0 -1 -2.5 -27t-3.5 -51l-12 -217q-1 -9 -1.5 -18.5t-0.5 -22.5q0 -44 11.5 -65t35.5 -21q29 0 57 26.5t70 96.5q20 33 37 69.5 t20 36.5t6.5 -3.5t3.5 -6.5q0 -6 -17.5 -45t-41.5 -80q-52 -86 -105.5 -131t-103.5 -45q-47 0 -73.5 31.5t-26.5 86.5q0 3 1.5 22.5l4.5 58.5l12 198q1 12 1.5 26.5t0.5 39.5q0 26 -9.5 39.5t-29.5 13.5q-50 0 -112 -135.5t-111 -358.5l-139 -22q19 175 31 312.5t20 260.5 q-19 -60 -40.5 -116.5t-45.5 -110.5l-31 -66q-2 -4 -5 -6t-5 -2q-4 0 -6 3t-2 9z" />
<glyph unicode="o" d="M25 188q0 100 70 199.5t100 99.5q5 0 8.5 -3t3.5 -7t-13 -25q-61 -103 -61 -186q0 -92 46.5 -147.5t121.5 -55.5q81 0 136 67.5t55 168.5q0 92 -52.5 149.5t-136.5 57.5q-8 0 -32 -3q-10 -1 -15 -1l-12 10q11 27 25 51t30 45q21 3 30.5 3.5t18.5 0.5q97 0 153 -63.5 t56 -173.5q0 -159 -101.5 -281.5t-226.5 -122.5q-94 0 -149 58.5t-55 158.5z" />
<glyph unicode="p" horiz-adv-x="692" d="M-10 272q0 4 13 33q61 132 103 273q36 9 71.5 15t71.5 9l-11 -416q22 -63 75 -102t115 -39q73 0 117.5 57t44.5 150q0 108 -63 175t-165 67h-8l-8 8l57 106q5 1 12 1.5t19 0.5q97 0 158 -79.5t61 -206.5q0 -142 -84 -247.5t-188 -105.5q-38 0 -78.5 14t-73.5 38 q-8 -136 -13 -278t-7 -295l-125 -48q13 287 23 574t18 585q-19 -60 -40.5 -116.5t-45.5 -110.5l-31 -66q-2 -4 -5 -6t-5 -2q-4 0 -6 3t-2 9z" />
<glyph unicode="q" horiz-adv-x="664" d="M20 180q0 111 85 218.5t126 107.5q4 0 7.5 -3t3.5 -7t-15 -23q-94 -118 -94 -237q0 -71 37.5 -115.5t95.5 -44.5q47 0 89 27.5t87 89.5l9 202v2q0 43 -45.5 83.5t-103.5 41.5l-11 15q13 20 28.5 37.5t34.5 33.5q2 0 6 1q30 3 46 3q37 0 74.5 -23.5t62.5 -64.5 q17 38 32 59t25 21q4 0 7 -4.5t3 -9.5q0 -4 -5 -21q-19 -63 -27 -127q-8 -62 -19 -337t-20 -655l-127 -48q11 173 18 353t10 376q-88 -96 -139.5 -129t-103.5 -33q-74 0 -125.5 60.5t-51.5 150.5z" />
<glyph unicode="r" horiz-adv-x="586" d="M-10 272q0 1 27 61.5t51 129.5q-1 2 -1 5q-3 18 -4 28q0 61 46.5 96t130.5 35q30 0 37.5 -2.5t7.5 -8.5q-1 -2 -15 -6q-82 -26 -82 -78q0 -24 18 -39.5t46 -15.5q51 0 115.5 29t68.5 29q5 0 7.5 -3t2.5 -8q0 -4 -35.5 -30t-64.5 -52q-58 -50 -92.5 -119.5t-34.5 -134.5 q0 -63 34.5 -101t92.5 -38q52 0 93.5 30t82.5 97q25 40 45 81.5t23 41.5t6.5 -3.5t3.5 -6.5q0 -8 -17 -43.5t-42 -79.5q-59 -102 -126 -148.5t-155 -46.5q-76 0 -121 43.5t-45 116.5q0 83 54.5 167.5t154.5 156.5q-53 -26 -85 -35.5t-58 -9.5t-44 7t-34 23 q-13 -34 -24.5 -62t-18.5 -44l-31 -66q-2 -4 -5 -6t-5 -2q-4 0 -6 3t-2 9z" />
<glyph unicode="s" horiz-adv-x="446" d="M-59 166q0 41 16.5 76.5t46.5 56.5q101 171 187 281t114 110q5 0 9.5 -4t4.5 -8t-12 -17q-43 -43 -43 -86q0 -41 72 -159.5t72 -192.5q0 -101 -79.5 -176.5t-185.5 -75.5q-89 0 -145.5 54.5t-56.5 140.5zM10 123q0 -52 34.5 -84.5t88.5 -32.5q67 0 106.5 45t39.5 123 q0 65 -52.5 176.5t-52.5 147.5q0 8 3 27q1 4 1 5q-42 -57 -78 -112.5t-65 -108.5q5 1 11 1.5t11 1.5q29 0 45.5 -19t16.5 -51q0 -44 -54.5 -58.5t-54.5 -60.5z" />
<glyph unicode="t" horiz-adv-x="451" d="M-10 272q0 3 17.5 42t33.5 79q38 97 63.5 173.5t28.5 94.5l19 246q25 8 51 11.5t55 3.5h23q-15 -105 -24 -188.5t-13 -149.5h196v-39h-198l-6 -60q-21 -238 -21 -313q0 -60 15.5 -86.5t50.5 -26.5q30 0 55 26t65 108q15 29 32 67.5t22 38.5q4 0 6 -2t2 -6 q0 -5 -16.5 -46.5t-38.5 -88.5q-45 -94 -91.5 -134t-109.5 -40q-60 0 -87.5 41t-27.5 133q0 10 0.5 19.5t1.5 19.5l31 366q-19 -60 -40.5 -116.5t-45.5 -110.5l-31 -66q-2 -4 -5 -6t-5 -2q-4 0 -6 3t-2 9z" />
<glyph unicode="u" horiz-adv-x="809" d="M-10 272q0 4 13 33q58 131 103 270q31 12 65 17.5t83 5.5q-12 -178 -19.5 -298t-7.5 -146q0 -45 12 -64.5t40 -19.5q59 0 122.5 106t69.5 231l8 168q26 12 54 17.5t59 5.5h16q-12 -175 -19 -295.5t-7 -150.5q0 -41 11.5 -61.5t35.5 -20.5q29 0 57 26.5t70 96.5 q20 33 37 69.5t20 36.5t6.5 -3.5t3.5 -6.5q0 -7 -17 -45t-42 -80q-51 -88 -105.5 -133t-107.5 -45q-46 0 -69 33t-23 98q0 30 2 64.5t6 72.5q-67 -142 -127.5 -205t-128.5 -63q-56 0 -82.5 36t-26.5 111q0 7 4 58q12 190 19 370q-19 -60 -40.5 -116.5t-45.5 -110.5l-31 -66 q-2 -4 -5 -6t-5 -2q-4 0 -6 3t-2 9z" />
<glyph unicode="v" horiz-adv-x="584" d="M43 365q0 79 78 159t112 80q3 0 6 -2.5t3 -3.5t-12 -13q-72 -71 -72 -141q0 -57 70.5 -176.5t84.5 -204.5q85 86 122.5 151t37.5 126q0 70 -38.5 120.5t-102.5 63.5v13l67 75q3 0 9.5 1t9.5 1q68 0 116 -56t48 -138q0 -61 -28.5 -118.5t-90.5 -123.5l-29 -29 q-94 -93 -129 -165l-72 -13q-28 97 -109 219t-81 175z" />
<glyph unicode="w" horiz-adv-x="915" d="M43 365q0 79 78 159t112 80q3 0 6 -2.5t3 -3.5t-12 -13q-72 -71 -72 -141q0 -57 70.5 -176.5t84.5 -204.5q34 35 67.5 70t65.5 70q-36 49 -53.5 89t-17.5 73q0 79 78 159t112 80q3 0 5.5 -2t2.5 -4t-12 -14q-72 -70 -72 -140q0 -57 71 -176.5t85 -204.5q85 86 122.5 151 t37.5 126q0 70 -38.5 120.5t-102.5 63.5v13l67 75q3 0 9 1t10 1q68 0 115.5 -56t47.5 -138q0 -61 -28 -118.5t-90 -123.5q-10 -9 -29 -29q-94 -93 -129 -165l-72 -13q-20 63 -45.5 114t-56.5 93q-56 -51 -94 -98t-64 -96l-72 -13q-28 97 -109 219t-81 175z" />
<glyph unicode="x" horiz-adv-x="1022" d="M-10 272q0 5 18.5 45.5t42.5 81.5q59 104 133 156.5t162 52.5q71 0 123 -36.5t82 -106.5q46 69 107 106t128 37q68 0 117.5 -26t79.5 -76l-88 -76q-24 59 -64.5 91t-91.5 32q-76 0 -123 -68.5t-47 -181.5q0 -112 50.5 -176t138.5 -64q64 0 121 36.5t96 103.5q17 28 32 62 t19 34q3 0 6.5 -3.5t3.5 -6.5q0 -9 -19.5 -50.5t-47.5 -84.5q-63 -92 -131.5 -137.5t-145.5 -45.5q-74 0 -131 40t-80 108q-50 -73 -112.5 -110.5t-135.5 -37.5q-84 0 -135 49.5t-51 131.5q0 61 34 102t87 41q34 0 54 -18.5t20 -49.5q0 -30 -17.5 -50.5t-42.5 -20.5 q-12 0 -24.5 3t-24.5 9q-6 -14 -9 -27.5t-3 -25.5q0 -47 36 -77t93 -30q96 0 156.5 77t60.5 200q0 109 -55 174t-148 65q-68 0 -125 -48t-100 -142l-31 -66q-2 -4 -5 -6t-5 -2q-4 0 -6 3t-2 9z" />
<glyph unicode="y" horiz-adv-x="711" d="M-10 272q0 4 13 33q58 131 103 270q35 14 71 20.5t77 6.5q-12 -182 -19.5 -302t-7.5 -146q0 -45 12 -64.5t40 -19.5q59 0 122.5 106t69.5 231l8 168q29 11 61.5 17.5t67.5 9.5l-30 -518q58 66 97.5 140.5l39.5 74.5q3 0 6.5 -3.5t3.5 -6.5q0 -22 -45 -102t-104 -139 q-10 -334 -98 -490t-267 -156q-78 0 -127 42.5t-49 109.5q0 108 259 295q103 73 161 119q3 61 6 132.5t6 152.5q-67 -141 -127.5 -204t-128.5 -63q-56 0 -82.5 36t-26.5 111q0 12 5 65q15 191 18 363q-19 -60 -40.5 -116.5t-45.5 -110.5l-31 -66q-2 -4 -5 -6t-5 -2 q-4 0 -6 3t-2 9zM145 -424q0 -55 32 -90t83 -35q96 0 138.5 99t56.5 380q-171 -128 -240.5 -208.5t-69.5 -145.5z" />
<glyph unicode="z" horiz-adv-x="590" d="M-10 272q0 4 13 32q54 124 95 253q25 17 53 31t60 24q11 -37 47 -57t92 -20q80 0 156 48q14 9 16 9q3 0 5.5 -2.5t2.5 -5.5t-1.5 -5.5t-4.5 -5.5l-415 -479q40 17 65.5 24t42.5 7q35 0 97 -27.5t89 -27.5q33 0 60 22.5t65 85.5q23 38 43.5 79.5t24.5 41.5q2 0 5 -3.5 t3 -6.5q0 -9 -19.5 -52t-47.5 -87q-53 -86 -115 -132.5t-121 -46.5q-42 0 -111 31t-96 31q-24 0 -46 -18.5t-32 -18.5q-3 0 -5 2.5t-3 7.5q0 4 2 8.5t6 8.5l414 473q-59 -33 -107 -48.5t-92 -15.5q-45 0 -73 17t-52 59q-16 -47 -33 -91.5t-34 -82.5l-31 -66q-2 -4 -5 -6 t-5 -2q-4 0 -6 3t-2 9z" />
<glyph unicode="{" horiz-adv-x="1024" d="M176 608v56q168 15 226.5 73.5t58.5 214.5v217q0 200 80 273.5t295 73.5h10v-49q-147 -2 -200.5 -55t-53.5 -210v-145q0 -225 -63 -308t-234 -114q171 -32 234 -114.5t63 -307.5v-145q0 -156 53 -208.5t201 -54.5v-49h-10q-215 0 -295 73t-80 273v217q0 156 -60 216 t-225 73z" />
<glyph unicode="|" horiz-adv-x="1024" d="M459 -483v2048h108v-2048h-108z" />
<glyph unicode="}" horiz-adv-x="1024" d="M178 -195q149 2 202.5 55t53.5 208v145q0 226 62.5 308.5t232.5 113.5q-170 31 -232.5 113.5t-62.5 308.5v145q0 155 -53.5 208.5t-202.5 56.5v49h10q216 0 296.5 -74t80.5 -273v-217q0 -157 58 -215t225 -73v-56q-165 -13 -224 -72.5t-59 -216.5v-217 q0 -199 -80.5 -272.5t-296.5 -73.5h-10v49z" />
<glyph unicode="~" horiz-adv-x="1706" d="M178 471v113q106 73 202 109t185 36q104 0 272 -61q11 -4 18 -7q9 -3 31 -11q167 -60 257 -60q85 0 177 38t210 122v-113q-102 -72 -198 -107.5t-189 -35.5q-99 0 -260 57q-20 7 -29 10q-5 2 -16 6q-176 64 -273 64q-83 0 -175 -38t-212 -122z" />
<glyph unicode="&#xa0;" />
<glyph unicode="&#xa1;" horiz-adv-x="598" d="M258 -18l90 890q20 6 37 8.5t33 2.5l-35 -867q-36 -12 -66.5 -20.5t-58.5 -13.5zM326 1034q0 39 3 77t9 77q27 7 56.5 10.5t62.5 3.5h24q0 -33 -3.5 -70t-10.5 -83q-28 -8 -58 -11.5t-61 -3.5h-22z" />
<glyph unicode="&#xa2;" d="M25 209q0 158 90.5 266.5t232.5 118.5l39 190h33l-37 -190q51 0 87.5 -15.5t66.5 -50.5q-23 -28 -43.5 -48t-42.5 -36q-17 22 -38.5 39t-47.5 29l-86 -438q10 -2 20.5 -3t26.5 -1q128 0 215 156q8 15 10 16q4 0 6 -2.5t2 -6.5q0 -13 -28 -63t-68 -94q-44 -50 -95.5 -76.5 t-105.5 -26.5l-47 -227h-33l47 227q-94 4 -149 67.5t-55 168.5zM125 307q0 -79 33 -138t92 -85l84 440q-15 3 -27.5 4.5t-21.5 1.5q-65 0 -112.5 -64t-47.5 -159z" />
<glyph unicode="&#xa3;" d="M18 59q0 37 25 59.5t63 22.5q21 0 43.5 -5.5t49.5 -18.5q0 4 2 14q6 41 6 62q0 46 -14 101t-46 130h-118v39h108q-21 57 -31 100.5t-10 79.5q0 108 67 178t169 70q93 0 153 -51t60 -131q0 -45 -22 -72t-58 -27q-32 0 -52 17t-20 45q0 25 13 41.5t38 23.5q-3 53 -36 84 t-86 31q-65 0 -102.5 -40t-37.5 -110q0 -26 28 -108t42 -131h145v-39h-135q11 -52 16 -87t5 -63q0 -44 -11 -87t-32 -87q52 -20 89.5 -29.5t65.5 -9.5q100 0 145 92q6 11 7 11q3 0 5.5 -1.5t2.5 -2.5q0 -2 -1 -5l-1 -3q0 -49 -57 -115t-123 -66q-40 0 -75.5 16.5t-86.5 59.5 q-22 -34 -50 -52t-61 -18q-35 0 -58.5 23t-23.5 59zM49 57q0 -21 14.5 -35t36.5 -14q29 0 50 16t34 48q-25 23 -40 31t-31 8q-29 0 -46.5 -15t-17.5 -39z" />
<glyph unicode="&#xa4;" horiz-adv-x="1241" d="M90 420l207 207q-45 59 -67.5 123.5t-22.5 134.5t22.5 135.5t67.5 124.5l-207 205l66 65l204 -207q59 47 124 69.5t137 22.5q73 0 139.5 -23t122.5 -69l204 207l66 -65l-207 -205q45 -59 67.5 -124.5t22.5 -135.5t-22.5 -134.5t-67.5 -123.5l207 -207l-66 -66l-204 207 q-57 -45 -123 -67.5t-139 -22.5t-137 22t-124 68l-204 -207zM301 887q0 -134 94 -229t228 -95q133 0 228 95t95 229t-94 227.5t-229 93.5q-133 0 -227.5 -94t-94.5 -227z" />
<glyph unicode="&#xa5;" horiz-adv-x="674" d="M35 215l2 31h98l6 102h-98l2 31h96q0 8 2 19v3q0 5 1.5 58t3.5 104q24 8 51.5 12.5t58.5 4.5l-23 -380q0 -7 -1 -16.5t-1 -21.5q0 -39 10.5 -54.5t35.5 -15.5q49 0 102.5 91.5t58.5 195.5l9 180q22 8 49 13.5t63 9.5l-14 -203h92l-2 -31h-92l-6 -102h92l-2 -31h-92 l-7 -104q-17 -306 -88.5 -429.5t-220.5 -123.5q-65 0 -108 36.5t-43 90.5q0 52 50 100.5t81 48.5q4 0 8 -3t4 -5t-10 -13q-47 -51 -47 -108q0 -49 29 -77.5t79 -28.5q87 0 122.5 109t49.5 540q-64 -132 -110.5 -181t-102.5 -49q-46 0 -71 29t-25 82v6l2 80h-94z" />
<glyph unicode="&#xa6;" horiz-adv-x="1024" d="M459 -350v758h108v-758h-108zM459 674v758h108v-758h-108z" />
<glyph unicode="&#xa7;" horiz-adv-x="807" d="M160 559q0 95 62.5 153.5t168.5 61.5q-110 101 -154 171.5t-44 137.5q0 95 68.5 155t178.5 60q84 0 153 -39.5t118 -115.5l-72 -47q-45 60 -97.5 91.5t-107.5 31.5q-66 0 -106.5 -36t-40.5 -93q0 -49 43 -113t131 -148q34 -32 100 -90q207 -181 207 -307 q0 -93 -63.5 -154t-161.5 -61h-21q113 -87 160 -159t47 -152q0 -100 -72.5 -166t-183.5 -66q-85 0 -164.5 44.5t-134.5 123.5l72 47q59 -70 112 -100.5t115 -30.5q71 0 114.5 41t43.5 105q0 52 -27 100t-108 125q-40 38 -116 105q-220 194 -220 325zM244 578q0 -46 27 -94.5 t85 -106.5q56 -54 99 -77.5t86 -23.5q59 0 99 39.5t40 98.5q0 48 -28.5 100t-84.5 104q-52 52 -96.5 75.5t-87.5 23.5q-58 0 -98.5 -40.5t-40.5 -98.5z" />
<glyph unicode="&#xa8;" horiz-adv-x="1024" d="M291 879q0 35 26.5 61.5t61.5 26.5t61.5 -26.5t26.5 -61.5q0 -38 -25.5 -64.5t-62.5 -26.5t-62.5 26.5t-25.5 64.5zM639 879q0 35 26.5 61.5t61.5 26.5t61.5 -26.5t26.5 -61.5q0 -38 -25.5 -64.5t-62.5 -26.5t-62.5 26.5t-25.5 64.5z" />
<glyph unicode="&#xa9;" horiz-adv-x="1683" d="M145 678q0 140 52.5 267.5t150.5 225.5q97 98 226 151.5t270 53.5q137 0 265 -53t224 -149q97 -96 151 -227t54 -269q0 -137 -52.5 -264t-152.5 -228q-97 -99 -224 -151.5t-267 -52.5q-139 0 -264.5 52t-227.5 152q-100 99 -152.5 225t-52.5 267zM227 678 q0 -125 47 -237.5t136 -200.5q89 -90 198.5 -136.5t233.5 -46.5q125 0 237 47t197 136q88 91 135 204t47 234q0 122 -48 239t-134 203t-199 133t-233 47q-122 0 -236 -48t-200 -136q-89 -91 -135 -203t-46 -235zM428 664q0 185 115 310.5t282 125.5q74 0 148 -34t82 -34 q28 0 44.5 16t20.5 45l31 1v-310h-37q-32 135 -104 205t-179 70q-125 0 -189 -95t-64 -280q0 -188 69 -285.5t203 -97.5q88 0 158.5 43.5t126.5 130.5l32 -22q-58 -105 -142.5 -156t-199.5 -51q-163 0 -280 122.5t-117 295.5z" />
<glyph unicode="&#xaa;" horiz-adv-x="606" d="M16 999q0 77 63.5 152.5t94.5 75.5q2 0 5 -2.5t3 -5.5q0 -2 -10 -14q-72 -82 -72 -167q0 -50 31 -83t76 -33q48 0 75 35t27 100v78q0 40 -23.5 70t-66.5 42l-4 10q11 11 24.5 23.5t28.5 23.5q40 -3 66.5 -21.5t46.5 -55.5q34 40 49.5 55.5t22.5 15.5q2 0 4 -2t2 -4 q0 -1 -7 -12q-61 -91 -61 -213q0 -70 19 -107.5t55 -37.5q26 0 50 20t52 66q15 23 28 48t15 25q3 0 4.5 -1.5t1.5 -4.5q0 -5 -12.5 -30.5t-31.5 -56.5q-41 -66 -85.5 -101t-85.5 -35q-36 0 -60 28t-30 78q-34 -51 -76 -78.5t-88 -27.5q-55 0 -93 42t-38 105z" />
<glyph unicode="&#xab;" horiz-adv-x="735" d="M47 291q111 81 211.5 171.5t108.5 90.5q5 0 9.5 -4t4.5 -8q0 -22 -53.5 -93.5t-137.5 -154.5q81 -84 134 -156t53 -94q0 -5 -5 -9.5t-10 -4.5q-6 0 -104.5 91t-210.5 171zM322 291q111 81 211.5 171.5t107.5 90.5q5 0 9.5 -3.5t4.5 -8.5q0 -22 -53.5 -93.5t-136.5 -154.5 q81 -84 133.5 -156t52.5 -94q0 -5 -4.5 -9.5t-9.5 -4.5q-7 0 -105 91t-210 171z" />
<glyph unicode="&#xac;" horiz-adv-x="1706" d="M254 758v100h1198v-502h-96v402h-1102z" />
<glyph unicode="&#xad;" horiz-adv-x="588" d="M90 252l35 104h385l-35 -104h-385z" />
<glyph unicode="&#xae;" horiz-adv-x="1683" d="M145 678q0 140 52.5 267.5t150.5 225.5q97 98 226 151.5t270 53.5q137 0 265 -53.5t226 -151.5q96 -96 149.5 -225.5t53.5 -267.5q0 -139 -53.5 -266.5t-153.5 -227.5q-99 -99 -225.5 -150.5t-267.5 -51.5q-138 0 -263 52.5t-225 151.5t-152.5 225t-52.5 267zM227 678 q0 -125 47 -237.5t136 -200.5q89 -90 198.5 -136.5t233.5 -46.5q125 0 237 47t197 136q88 91 135 204t47 234q0 122 -48.5 239.5t-133.5 202.5q-86 86 -199 133t-233 47q-122 0 -236 -48t-200 -136q-88 -89 -134.5 -202t-46.5 -236zM469 291v40q75 3 103 25t28 78v514 q0 56 -28 77.5t-103 23.5v41h393q147 0 231.5 -54t84.5 -145q0 -75 -68.5 -122.5t-220.5 -76.5q94 -31 141.5 -79t69.5 -134q6 -23 13 -64q14 -85 58 -85q37 0 54.5 32t17.5 99h41v-12q0 -86 -40 -131.5t-116 -45.5q-45 0 -79 18.5t-48 51.5q-16 38 -17 111.5t-9 99.5 q-21 66 -73.5 97.5t-141.5 31.5q-6 0 -18.5 -1t-18.5 -1v-246q0 -56 29 -78.5t102 -24.5v-40h-385zM723 717h33h35q119 0 183 45.5t64 130.5q0 74 -55.5 118t-151.5 44q-52 0 -80 -19t-28 -55v-264z" />
<glyph unicode="&#xaf;" horiz-adv-x="1024" d="M297 823v109h512v-109h-512z" />
<glyph unicode="&#xb0;" horiz-adv-x="674" d="M59 1174q0 116 81.5 197t197.5 81q115 0 195.5 -81.5t80.5 -196.5t-81.5 -197t-196.5 -82q-117 0 -197 81t-80 198zM129 1174q0 -87 61 -147t148 -60t147 60t60 147q0 86 -60.5 147t-146.5 61t-147.5 -61t-61.5 -147z" />
<glyph unicode="&#xb1;" horiz-adv-x="1706" d="M254 51v99h1198v-99h-1198zM254 723v98h551v348h98v-348h549v-98h-549v-348h-98v348h-551z" />
<glyph unicode="&#xb2;" horiz-adv-x="381" d="M37 219q88 79 142 149t54 101q0 20 -12 29.5t-37 9.5q-28 0 -60.5 -10t-66.5 -29l21 74q38 20 74 30.5t65 10.5q41 0 65.5 -18t24.5 -48q0 -34 -40 -91t-123 -140q24 5 41.5 7.5t29.5 2.5q23 0 53 -5.5t65 -16.5q-8 -16 -24 -49q-5 -10 -8 -15q-36 8 -69.5 12t-65.5 4 q-26 0 -56 -4t-69 -12z" />
<glyph unicode="&#xb3;" horiz-adv-x="322" d="M25 47q0 5 27 18.5t46 24.5q56 31 83.5 63.5t27.5 67.5q0 40 -34 69t-93 40v10q56 31 89.5 70t33.5 71q0 19 -12.5 28t-36.5 9q-21 0 -53.5 -9t-71.5 -26l18 68q35 16 68 24.5t59 8.5q39 0 61.5 -17.5t22.5 -46.5q0 -32 -26.5 -69.5t-81.5 -83.5q62 -11 95.5 -39.5 t33.5 -71.5q0 -45 -29.5 -82t-97.5 -78q-43 -24 -79.5 -40.5t-43.5 -16.5q-3 0 -4.5 2t-1.5 6z" />
<glyph unicode="&#xb4;" horiz-adv-x="1024" d="M428 723l242 305q23 29 39 40t32 11q23 0 39.5 -16t16.5 -37q0 -15 -9 -28.5t-38 -39.5l-273 -235h-49z" />
<glyph unicode="&#xb5;" horiz-adv-x="1079" d="M-59 -342q0 40 60 279.5t99 429.5l111 518h129l-109 -509q-5 -26 -7.5 -49.5t-2.5 -45.5q0 -91 44.5 -144t119.5 -53q100 0 170 79t102 228l111 494h129l-115 -527q-11 -53 -16.5 -91.5t-5.5 -63.5q0 -51 21 -79t59 -28q39 0 71.5 22.5t57.5 67.5q12 24 29 74 q24 72 49 72q10 0 16 -9.5t6 -25.5q0 -27 -16.5 -80.5t-40.5 -93.5q-39 -68 -90.5 -102.5t-112.5 -34.5q-75 0 -113.5 45.5t-38.5 134.5v27q-44 -108 -112 -160.5t-162 -52.5q-95 0 -151.5 53.5t-69.5 156.5q-23 -131 -44 -329q-31 -277 -106 -277q-34 0 -52.5 19.5 t-18.5 54.5z" />
<glyph unicode="&#xb6;" horiz-adv-x="1024" d="M84 1130q0 157 107.5 253t285.5 96h463v-70h-127v-1409h-82v1409h-186v-1409h-84v782q-174 8 -275.5 102.5t-101.5 245.5z" />
<glyph unicode="&#xb7;" horiz-adv-x="379" d="M106 285q0 34 25 59t59 25t58 -25t24 -59t-24 -58t-58 -24t-59 24t-25 58z" />
<glyph unicode="&#xb8;" horiz-adv-x="1024" d="M268 -373l27 66q63 -32 123 -50t98 -18q64 0 95.5 25t31.5 76q0 42 -30 67t-83 25q-10 0 -32 -3t-31 -3v188h55v-121q18 2 33.5 3t30.5 1q74 0 120 -44.5t46 -117.5q0 -72 -57 -116.5t-150 -44.5q-56 0 -125 16.5t-152 50.5z" />
<glyph unicode="&#xb9;" horiz-adv-x="322" d="M10 463q0 3 48.5 34.5t95.5 67.5q20 6 42.5 10.5t47.5 7.5q-3 -86 -8.5 -176t-14.5 -184q-20 -6 -40 -9t-41 -3q5 59 9.5 126t12.5 202q-55 -39 -95.5 -63.5t-48.5 -24.5q-3 0 -5.5 4.5t-2.5 7.5z" />
<glyph unicode="&#xba;" horiz-adv-x="434" d="M18 1004q0 69 53 139.5t74 70.5q5 0 7.5 -2t3.5 -6q0 -2 -10 -17q-46 -71 -46 -130q0 -64 34.5 -102.5t90.5 -38.5q61 0 102.5 46.5t41.5 116.5q0 65 -39.5 105.5t-102.5 40.5q-3 0 -15 -1t-19 -1l-11 6q13 25 22.5 40t20.5 27q6 1 14 1.5t23 0.5q73 0 114.5 -44 t41.5 -121q0 -111 -76.5 -197t-169.5 -86q-70 0 -112 41t-42 111z" />
<glyph unicode="&#xbb;" horiz-adv-x="735" d="M47 43q0 22 53.5 93.5t137.5 154.5q-82 84 -134.5 155t-52.5 93q0 4 5 9t10 5q6 0 104.5 -91t210.5 -171q-111 -82 -211.5 -172t-108.5 -90q-5 0 -9.5 4.5t-4.5 9.5zM322 43q0 22 53.5 93.5t136.5 154.5q-81 84 -133.5 155t-52.5 93q0 4 4.5 9t9.5 5q7 0 105 -91 t210 -171q-111 -82 -211.5 -172t-107.5 -90q-6 0 -10 4.5t-4 9.5z" />
<glyph unicode="&#xbc;" horiz-adv-x="1223" d="M-6 690q0 4 74 55.5t145 114.5q31 11 66 18.5t71 12.5q-9 -203 -16.5 -346.5t-16.5 -253.5q-28 -9 -60 -14t-66 -7q10 116 18.5 247.5t15.5 297.5q-82 -64 -143 -103.5t-74 -39.5q-4 0 -9 6t-5 12zM238 -14q125 211 251 437.5t252 467.5h95q-124 -211 -249 -436 t-253 -469h-96zM655 225q0 27 39.5 108t116.5 212q65 113 88.5 147.5t32.5 34.5q5 0 8.5 -3.5t3.5 -8.5q0 -11 -69 -139l-17 -31q-76 -144 -96.5 -189t-20.5 -61q0 -21 34 -30t159 -13l31 354l8 5q59 34 96 51l-34 -410q38 2 58.5 4t34.5 4l-16 -94q-23 -3 -46 -4.5 t-42 -1.5l-8 -149q-23 -10 -49 -17t-57 -12l16 178h-47q-112 0 -168 16.5t-56 48.5z" />
<glyph unicode="&#xbd;" horiz-adv-x="1223" d="M-6 690q0 4 74 55.5t145 114.5q31 11 66 18.5t71 12.5q-9 -203 -16.5 -346.5t-16.5 -253.5q-28 -9 -60 -14t-66 -7q10 116 18.5 247.5t15.5 297.5q-82 -64 -143 -103.5t-74 -39.5q-4 0 -9 6t-5 12zM238 -14q125 211 251 437.5t252 467.5h95q-124 -211 -249 -436 t-253 -469h-96zM686 -12q132 128 213.5 245t81.5 170q0 34 -18 50t-56 16q-41 0 -90.5 -17t-101.5 -49l33 121q58 35 111.5 52.5t98.5 17.5q63 0 100.5 -30t37.5 -81q0 -56 -62 -151t-188 -232q32 8 59 11.5t49 3.5q37 0 81.5 -8.5t99.5 -26.5q-13 -25 -25.5 -52.5 t-24.5 -56.5q-54 15 -105.5 22t-100.5 7q-38 0 -83 -6.5t-104 -20.5z" />
<glyph unicode="&#xbe;" horiz-adv-x="1223" d="M31 188q0 9 54 34q37 18 60 30q68 35 102 74.5t34 83.5q0 50 -45 88t-121 51v26q73 41 116 89t43 86q0 25 -14 36t-47 11q-30 0 -73 -10.5t-93 -30.5l21 94q44 21 89.5 32t86.5 11q56 0 87 -23t31 -63q0 -42 -36.5 -89t-116.5 -108q87 -15 133.5 -53t46.5 -94 q0 -60 -38 -105t-140 -102q-57 -32 -109.5 -55t-60.5 -23q-4 0 -7 3.5t-3 6.5zM256 -14q117 197 241.5 421.5t260.5 483.5h96q-134 -227 -259 -452t-245 -453h-94zM674 225q0 28 39.5 110.5t113.5 209.5q66 113 89 147.5t32 34.5q6 0 10 -3.5t5 -8.5q0 -11 -69 -139l-17 -31 q-77 -144 -97 -189t-20 -61q0 -21 34 -30t158 -13l31 354l8 5q59 34 96 51l-34 -410q36 2 56.5 4t35.5 4l-17 -94q-24 -3 -45.5 -4.5t-40.5 -1.5l-10 -150q-22 -9 -48 -16t-58 -12l16 178h-47q-110 0 -165.5 16.5t-55.5 48.5z" />
<glyph unicode="&#xbf;" horiz-adv-x="915" d="M125 176q0 107 190 253q88 66 129 106q56 52 79.5 129t23.5 214q20 6 42 8.5t50 2.5h29q0 -13 2 -35q2 -32 2 -41q0 -150 -176 -300l-12 -11q-111 -96 -162.5 -171t-51.5 -138q0 -74 52 -120t135 -46q99 0 156 47t57 127q0 46 -32.5 77t-78.5 31q-30 0 -57 -16.5 t-31 -16.5t-7 4t-3 9q0 26 57.5 63t112.5 37q70 0 110.5 -40.5t40.5 -108.5q0 -111 -100.5 -185.5t-251.5 -74.5q-135 0 -220 54.5t-85 141.5zM539 1042q0 34 3 70t11 84q23 6 48.5 9t62.5 3h30q0 -38 -3 -76.5t-9 -74.5q-27 -7 -57.5 -11t-63.5 -4h-22z" />
<glyph unicode="&#xc0;" horiz-adv-x="1493" d="M121 442q0 178 78 348.5t223 309.5q52 49 97 84t54 35q4 0 7.5 -2.5t3.5 -4.5q0 -5 -28.5 -32t-49.5 -52q-126 -144 -188 -293t-62 -309q0 -209 100 -337t262 -128q193 0 315 161.5t134 436.5l12 326v16q0 104 -55 169t-143 65q-101 0 -174.5 -67t-73.5 -160 q0 -61 31.5 -95t87.5 -34q67 0 124 56q10 11 13 11q4 0 6 -2t2 -6q0 -45 -69.5 -102.5t-149.5 -57.5q-70 0 -113 42.5t-43 111.5q0 136 135 252t293 116q101 0 171.5 -53t92.5 -147l70 145q4 8 9 19q20 43 28 43q4 0 8 -5t4 -10q0 -2 -3 -9q-2 -5 -3 -7l-41 -84 q-33 -69 -52 -168t-26 -238l-26 -529q-1 -16 -1.5 -31.5t-0.5 -35.5q0 -63 19.5 -89.5t66.5 -26.5q46 0 92.5 31.5t81.5 87.5q20 32 37 69t20 37t6.5 -3.5t3.5 -6.5q0 -10 -19.5 -52.5t-47.5 -86.5q-56 -87 -137.5 -138t-161.5 -51q-56 0 -81.5 31.5t-25.5 101.5 q0 12 0.5 29t1.5 37l6 178q-85 -177 -217.5 -274t-287.5 -97q-189 0 -302.5 129.5t-113.5 345.5zM596 1714q0 21 16.5 37t39.5 16q16 0 32 -11t39 -40l242 -305h-49l-273 235q-29 26 -38 39.5t-9 28.5z" />
<glyph unicode="&#xc1;" horiz-adv-x="1493" d="M121 442q0 178 78 348.5t223 309.5q52 49 97 84t54 35q4 0 7.5 -2.5t3.5 -4.5q0 -5 -28.5 -32t-49.5 -52q-126 -144 -188 -293t-62 -309q0 -209 100 -337t262 -128q193 0 315 161.5t134 436.5l12 326v16q0 104 -55 169t-143 65q-101 0 -174.5 -67t-73.5 -160 q0 -61 31.5 -95t87.5 -34q67 0 124 56q10 11 13 11q4 0 6 -2t2 -6q0 -45 -69.5 -102.5t-149.5 -57.5q-70 0 -113 42.5t-43 111.5q0 136 135 252t293 116q101 0 171.5 -53t92.5 -147l70 145q4 8 9 19q20 43 28 43q4 0 8 -5t4 -10q0 -2 -3 -9q-2 -5 -3 -7l-41 -84 q-33 -69 -52 -168t-26 -238l-26 -529q-1 -16 -1.5 -31.5t-0.5 -35.5q0 -63 19.5 -89.5t66.5 -26.5q46 0 92.5 31.5t81.5 87.5q20 32 37 69t20 37t6.5 -3.5t3.5 -6.5q0 -10 -19.5 -52.5t-47.5 -86.5q-56 -87 -137.5 -138t-161.5 -51q-56 0 -81.5 31.5t-25.5 101.5 q0 12 0.5 29t1.5 37l6 178q-85 -177 -217.5 -274t-287.5 -97q-189 0 -302.5 129.5t-113.5 345.5zM715 1411l242 305q23 29 39 40t32 11q23 0 39.5 -16t16.5 -37q0 -15 -9 -28.5t-38 -39.5l-273 -235h-49z" />
<glyph unicode="&#xc2;" horiz-adv-x="1493" d="M121 442q0 178 78 348.5t223 309.5q52 49 97 84t54 35q4 0 7.5 -2.5t3.5 -4.5q0 -5 -28.5 -32t-49.5 -52q-126 -144 -188 -293t-62 -309q0 -209 100 -337t262 -128q193 0 315 161.5t134 436.5l12 326v16q0 104 -55 169t-143 65q-101 0 -174.5 -67t-73.5 -160 q0 -61 31.5 -95t87.5 -34q67 0 124 56q10 11 13 11q4 0 6 -2t2 -6q0 -45 -69.5 -102.5t-149.5 -57.5q-70 0 -113 42.5t-43 111.5q0 136 135 252t293 116q101 0 171.5 -53t92.5 -147l70 145q4 8 9 19q20 43 28 43q4 0 8 -5t4 -10q0 -2 -3 -9q-2 -5 -3 -7l-41 -84 q-33 -69 -52 -168t-26 -238l-26 -529q-1 -16 -1.5 -31.5t-0.5 -35.5q0 -63 19.5 -89.5t66.5 -26.5q46 0 92.5 31.5t81.5 87.5q20 32 37 69t20 37t6.5 -3.5t3.5 -6.5q0 -10 -19.5 -52.5t-47.5 -86.5q-56 -87 -137.5 -138t-161.5 -51q-56 0 -81.5 31.5t-25.5 101.5 q0 12 0.5 29t1.5 37l6 178q-85 -177 -217.5 -274t-287.5 -97q-189 0 -302.5 129.5t-113.5 345.5zM568 1411l225 348h94l223 -348h-49l-221 231l-223 -231h-49z" />
<glyph unicode="&#xc3;" horiz-adv-x="1493" d="M121 442q0 178 78 348.5t223 309.5q52 49 97 84t54 35q4 0 7.5 -2.5t3.5 -4.5q0 -5 -28.5 -32t-49.5 -52q-126 -144 -188 -293t-62 -309q0 -209 100 -337t262 -128q193 0 315 161.5t134 436.5l12 326v16q0 104 -55 169t-143 65q-101 0 -174.5 -67t-73.5 -160 q0 -61 31.5 -95t87.5 -34q67 0 124 56q10 11 13 11q4 0 6 -2t2 -6q0 -45 -69.5 -102.5t-149.5 -57.5q-70 0 -113 42.5t-43 111.5q0 136 135 252t293 116q101 0 171.5 -53t92.5 -147l70 145q4 8 9 19q20 43 28 43q4 0 8 -5t4 -10q0 -2 -3 -9q-2 -5 -3 -7l-41 -84 q-33 -69 -52 -168t-26 -238l-26 -529q-1 -16 -1.5 -31.5t-0.5 -35.5q0 -63 19.5 -89.5t66.5 -26.5q46 0 92.5 31.5t81.5 87.5q20 32 37 69t20 37t6.5 -3.5t3.5 -6.5q0 -10 -19.5 -52.5t-47.5 -86.5q-56 -87 -137.5 -138t-161.5 -51q-56 0 -81.5 31.5t-25.5 101.5 q0 12 0.5 29t1.5 37l6 178q-85 -177 -217.5 -274t-287.5 -97q-189 0 -302.5 129.5t-113.5 345.5zM555 1468q17 88 61 135.5t109 47.5q18 0 40 -4.5t50 -12.5l117 -35q15 -4 29 -6t26 -2q37 0 60.5 22t34.5 66h43q-19 -90 -63.5 -137t-110.5 -47q-15 0 -33.5 3.5t-44.5 10.5 l-117 37q-18 6 -34.5 9t-31.5 3q-35 0 -57 -21t-35 -69h-43z" />
<glyph unicode="&#xc4;" horiz-adv-x="1493" d="M121 442q0 178 78 348.5t223 309.5q52 49 97 84t54 35q4 0 7.5 -2.5t3.5 -4.5q0 -5 -28.5 -32t-49.5 -52q-126 -144 -188 -293t-62 -309q0 -209 100 -337t262 -128q193 0 315 161.5t134 436.5l12 326v16q0 104 -55 169t-143 65q-101 0 -174.5 -67t-73.5 -160 q0 -61 31.5 -95t87.5 -34q67 0 124 56q10 11 13 11q4 0 6 -2t2 -6q0 -45 -69.5 -102.5t-149.5 -57.5q-70 0 -113 42.5t-43 111.5q0 136 135 252t293 116q101 0 171.5 -53t92.5 -147l70 145q4 8 9 19q20 43 28 43q4 0 8 -5t4 -10q0 -2 -3 -9q-2 -5 -3 -7l-41 -84 q-33 -69 -52 -168t-26 -238l-26 -529q-1 -16 -1.5 -31.5t-0.5 -35.5q0 -63 19.5 -89.5t66.5 -26.5q46 0 92.5 31.5t81.5 87.5q20 32 37 69t20 37t6.5 -3.5t3.5 -6.5q0 -10 -19.5 -52.5t-47.5 -86.5q-56 -87 -137.5 -138t-161.5 -51q-56 0 -81.5 31.5t-25.5 101.5 q0 12 0.5 29t1.5 37l6 178q-85 -177 -217.5 -274t-287.5 -97q-189 0 -302.5 129.5t-113.5 345.5zM578 1567q0 35 26.5 61.5t61.5 26.5t61.5 -26.5t26.5 -61.5q0 -38 -25.5 -64.5t-62.5 -26.5t-62.5 26.5t-25.5 64.5zM926 1567q0 35 26.5 61.5t61.5 26.5t61.5 -26.5 t26.5 -61.5q0 -38 -25.5 -64.5t-62.5 -26.5t-62.5 26.5t-25.5 64.5z" />
<glyph unicode="&#xc5;" horiz-adv-x="1493" d="M121 442q0 178 78 348.5t223 309.5q52 49 97 84t54 35q4 0 7.5 -2.5t3.5 -4.5q0 -5 -28.5 -32t-49.5 -52q-126 -144 -188 -293t-62 -309q0 -209 100 -337t262 -128q193 0 315.5 161.5t135.5 436.5l10 326v16q0 104 -55 169t-143 65q-101 0 -174.5 -67t-73.5 -160 q0 -61 31.5 -95t87.5 -34q67 0 124 56q10 11 13 11q4 0 6 -2t2 -6q0 -45 -69.5 -102.5t-149.5 -57.5q-70 0 -113 42.5t-43 111.5q0 136 135 252t293 116q101 0 171.5 -53t92.5 -147l70 145q4 8 9 19q20 43 28 43q4 0 8 -5t4 -10q0 -2 -3 -9q-2 -5 -3 -7l-41 -84 q-33 -69 -52 -168t-26 -238l-26 -529q-1 -16 -1.5 -31.5t-0.5 -35.5q0 -63 19.5 -89.5t66.5 -26.5q46 0 92.5 31.5t81.5 87.5q20 32 37 69t20 37t6.5 -3.5t3.5 -6.5q0 -10 -19.5 -52.5t-47.5 -86.5q-56 -87 -137.5 -138t-161.5 -51q-56 0 -81.5 31.5t-25.5 101.5 q0 12 0.5 29t1.5 37l6 178q-85 -177 -217.5 -274t-287.5 -97q-189 0 -302.5 129.5t-113.5 345.5zM600 1599q0 99 67.5 166.5t166.5 67.5q96 0 164.5 -68.5t68.5 -165.5q0 -96 -68.5 -164.5t-164.5 -68.5q-98 0 -166 68t-68 165zM682 1599q0 -64 43.5 -108.5t108.5 -44.5 q64 0 108.5 44.5t44.5 108.5q0 63 -45 107.5t-108 44.5q-64 0 -108 -44t-44 -108z" />
<glyph unicode="&#xc6;" horiz-adv-x="1927" d="M121 444q0 178 75.5 348t217.5 310q46 46 91.5 81.5t53.5 35.5q4 0 7 -2.5t3 -4.5q0 -5 -27 -32t-48 -52q-122 -144 -182 -294t-60 -308q0 -215 101 -344t268 -129q97 0 185 50.5t140 136.5q36 58 51 141t15 278v291q0 174 -33.5 230.5t-116.5 56.5q-100 0 -173 -68 t-73 -161q0 -60 31.5 -94.5t85.5 -34.5q62 0 118 56q11 11 13 11q4 0 6 -2t2 -6q0 -44 -66.5 -102t-143.5 -58q-68 0 -111 42.5t-43 109.5q0 138 132 254t286 116q83 0 136 -34t75 -101l59 123q4 8 9.5 13.5t8.5 5.5t7 -4.5t4 -8.5q0 -1 -1.5 -5.5t-5.5 -13.5l-36 -83 q-26 -55 -36.5 -118t-10.5 -204v-366q67 82 166.5 138t238.5 91q-134 36 -219.5 119.5t-85.5 185.5q0 114 87 187t222 73q132 0 217.5 -64.5t85.5 -158.5q0 -72 -61.5 -124t-130.5 -52q-7 0 -11.5 1t-5.5 3q0 3 15 15q84 69 84 159q0 82 -52.5 133.5t-134.5 51.5 q-89 0 -145.5 -63t-56.5 -163q0 -81 41 -144t122 -106q34 -18 78.5 -30.5t44.5 -24.5q0 -9 -46.5 -20.5t-86.5 -28.5q-137 -58 -221 -173.5t-84 -244.5q0 -118 70 -193t180 -75q118 0 202.5 83.5t84.5 199.5q0 76 -40 121.5t-106 45.5q-12 0 -26 -3t-17 -3q-4 0 -7 3t-3 6 q0 12 45 28.5t98 16.5q87 0 140 -55.5t53 -145.5q0 -126 -130 -229t-300 -103q-178 0 -278.5 94.5t-102.5 263.5q-98 -168 -235 -260t-287 -92q-193 0 -304.5 128t-111.5 349z" />
<glyph unicode="&#xc7;" horiz-adv-x="1221" d="M147 506q0 163 70 320t195 274q102 98 223.5 149t249.5 51q167 0 275 -84t108 -212q0 -130 -117 -228t-272 -98q-92 0 -147.5 44t-55.5 116q0 80 72.5 145.5t132.5 65.5q3 -1 5 -2.5t3 -4.5l-46 -51.5t-46 -124.5q0 -62 39 -100.5t102 -38.5q85 0 140 63.5t55 163.5 q0 139 -77.5 221t-207.5 82q-84 0 -166.5 -34t-151.5 -97q-114 -102 -179.5 -251.5t-65.5 -307.5q0 -242 140.5 -389t369.5 -147q105 0 195 40.5t161 121.5q27 30 51 69t29 39q4 0 6 -1.5t2 -4.5q0 -10 -26 -54t-62 -85q-86 -98 -198.5 -146.5t-250.5 -48.5 q-246 0 -400.5 152t-154.5 393zM448 -373l27 66q63 -32 123 -50t98 -18q64 0 95.5 25t31.5 76q0 42 -30 67t-83 25q-10 0 -32 -3t-31 -3v188h55v-121q18 2 33.5 3t30.5 1q74 0 120 -44.5t46 -117.5q0 -72 -57 -116.5t-150 -44.5q-56 0 -125 16.5t-152 50.5z" />
<glyph unicode="&#xc8;" horiz-adv-x="995" d="M119 285q0 151 130.5 271t358.5 177q-166 53 -249 128.5t-83 176.5q0 114 94 187t242 73q132 0 217.5 -64.5t85.5 -158.5q0 -72 -61.5 -124t-130.5 -52q-7 0 -11.5 1t-4.5 3q0 3 14 15q84 69 84 159q0 82 -51.5 133.5t-132.5 51.5q-90 0 -147.5 -63t-57.5 -163 q0 -81 41 -144t123 -106q33 -18 77.5 -30.5t44.5 -24.5q0 -9 -46.5 -20.5t-86.5 -28.5q-137 -58 -221 -173.5t-84 -244.5q0 -116 69.5 -188t180.5 -72q120 0 203.5 80.5t83.5 194.5q0 76 -39.5 121.5t-106.5 45.5q-11 0 -25.5 -3t-17.5 -3t-6.5 3t-3.5 6q0 12 45 28.5 t98 16.5q87 0 140 -55.5t53 -145.5q0 -126 -129 -229t-299 -103t-280.5 92t-110.5 232zM370 1714q0 21 16.5 37t39.5 16q16 0 32 -11t39 -40l242 -305h-49l-273 235q-29 26 -38 39.5t-9 28.5z" />
<glyph unicode="&#xc9;" horiz-adv-x="995" d="M119 285q0 151 130.5 271t358.5 177q-166 53 -249 128.5t-83 176.5q0 114 94 187t242 73q132 0 217.5 -64.5t85.5 -158.5q0 -72 -61.5 -124t-130.5 -52q-7 0 -11.5 1t-4.5 3q0 3 14 15q84 69 84 159q0 82 -51.5 133.5t-132.5 51.5q-90 0 -147.5 -63t-57.5 -163 q0 -81 41 -144t123 -106q33 -18 77.5 -30.5t44.5 -24.5q0 -9 -46.5 -20.5t-86.5 -28.5q-137 -58 -221 -173.5t-84 -244.5q0 -116 69.5 -188t180.5 -72q120 0 203.5 80.5t83.5 194.5q0 76 -39.5 121.5t-106.5 45.5q-11 0 -25.5 -3t-17.5 -3t-6.5 3t-3.5 6q0 12 45 28.5 t98 16.5q87 0 140 -55.5t53 -145.5q0 -126 -129 -229t-299 -103t-280.5 92t-110.5 232zM489 1411l242 305q23 29 39 40t32 11q23 0 39.5 -16t16.5 -37q0 -15 -9 -28.5t-38 -39.5l-273 -235h-49z" />
<glyph unicode="&#xca;" horiz-adv-x="995" d="M119 285q0 151 130.5 271t358.5 177q-166 53 -249 128.5t-83 176.5q0 114 94 187t242 73q132 0 217.5 -64.5t85.5 -158.5q0 -72 -61.5 -124t-130.5 -52q-7 0 -11.5 1t-4.5 3q0 3 14 15q84 69 84 159q0 82 -51.5 133.5t-132.5 51.5q-90 0 -147.5 -63t-57.5 -163 q0 -81 41 -144t123 -106q33 -18 77.5 -30.5t44.5 -24.5q0 -9 -46.5 -20.5t-86.5 -28.5q-137 -58 -221 -173.5t-84 -244.5q0 -116 69.5 -188t180.5 -72q120 0 203.5 80.5t83.5 194.5q0 76 -39.5 121.5t-106.5 45.5q-11 0 -25.5 -3t-17.5 -3t-6.5 3t-3.5 6q0 12 45 28.5 t98 16.5q87 0 140 -55.5t53 -145.5q0 -126 -129 -229t-299 -103t-280.5 92t-110.5 232zM342 1411l225 348h94l223 -348h-49l-221 231l-223 -231h-49z" />
<glyph unicode="&#xcb;" horiz-adv-x="995" d="M119 285q0 151 130.5 271t358.5 177q-166 53 -249 128.5t-83 176.5q0 114 94 187t242 73q132 0 217.5 -64.5t85.5 -158.5q0 -72 -61.5 -124t-130.5 -52q-7 0 -11.5 1t-4.5 3q0 3 14 15q84 69 84 159q0 82 -51.5 133.5t-132.5 51.5q-90 0 -147.5 -63t-57.5 -163 q0 -81 41 -144t123 -106q33 -18 77.5 -30.5t44.5 -24.5q0 -9 -46.5 -20.5t-86.5 -28.5q-137 -58 -221 -173.5t-84 -244.5q0 -116 69.5 -188t180.5 -72q120 0 203.5 80.5t83.5 194.5q0 76 -39.5 121.5t-106.5 45.5q-11 0 -25.5 -3t-17.5 -3t-6.5 3t-3.5 6q0 12 45 28.5 t98 16.5q87 0 140 -55.5t53 -145.5q0 -126 -129 -229t-299 -103t-280.5 92t-110.5 232zM352 1567q0 35 26.5 61.5t61.5 26.5t61.5 -26.5t26.5 -61.5q0 -38 -25.5 -64.5t-62.5 -26.5t-62.5 26.5t-25.5 64.5zM700 1567q0 35 26.5 61.5t61.5 26.5t61.5 -26.5t26.5 -61.5 q0 -38 -25.5 -64.5t-62.5 -26.5t-62.5 26.5t-25.5 64.5z" />
<glyph unicode="&#xcc;" horiz-adv-x="891" d="M92 274q0 84 42.5 138.5t107.5 54.5q43 0 70.5 -25t27.5 -65q0 -45 -29.5 -73t-77.5 -28q-8 -18 -12 -35t-4 -34q0 -90 61 -149.5t156 -59.5q123 0 202 84t79 217q0 56 -47 222t-47 274q0 110 175 371l1 1q-83 -91 -186 -142.5t-201 -51.5q-35 0 -61 5t-50 15l-55 -239 q-2 -6 -4.5 -9t-6.5 -4q-3 1 -4.5 3t-1.5 6v6l47 250q-24 18 -36.5 43.5t-12.5 56.5q0 65 45 136t62 71q5 -1 6.5 -2.5t1.5 -3.5q0 -3 -5 -17q-22 -52 -22 -96q0 -64 57 -109t142 -45q73 0 156.5 49.5t150.5 133.5q29 36 59.5 80.5t34.5 44.5q5 -1 7.5 -3t3.5 -6 q0 -7 -29 -51q-152 -228 -152 -411q0 -87 42 -247t42 -239q0 -176 -116 -302t-275 -126q-149 0 -246.5 88.5t-97.5 222.5zM350 1714q0 21 16.5 37t39.5 16q16 0 32 -11t39 -40l242 -305h-49l-273 235q-29 26 -38 39.5t-9 28.5z" />
<glyph unicode="&#xcd;" horiz-adv-x="891" d="M92 274q0 84 42.5 138.5t107.5 54.5q43 0 70.5 -25t27.5 -65q0 -45 -29.5 -73t-77.5 -28q-8 -18 -12 -35t-4 -34q0 -90 61 -149.5t156 -59.5q123 0 202 84t79 217q0 56 -47 222t-47 274q0 110 175 371l1 1q-83 -91 -186 -142.5t-201 -51.5q-35 0 -61 5t-50 15l-55 -239 q-2 -6 -4.5 -9t-6.5 -4q-3 1 -4.5 3t-1.5 6v6l47 250q-24 18 -36.5 43.5t-12.5 56.5q0 65 45 136t62 71q5 -1 6.5 -2.5t1.5 -3.5q0 -3 -5 -17q-22 -52 -22 -96q0 -64 57 -109t142 -45q73 0 156.5 49.5t150.5 133.5q29 36 59.5 80.5t34.5 44.5q5 -1 7.5 -3t3.5 -6 q0 -7 -29 -51q-152 -228 -152 -411q0 -87 42 -247t42 -239q0 -176 -116 -302t-275 -126q-149 0 -246.5 88.5t-97.5 222.5zM469 1411l242 305q23 29 39 40t32 11q23 0 39.5 -16t16.5 -37q0 -15 -9 -28.5t-38 -39.5l-273 -235h-49z" />
<glyph unicode="&#xce;" horiz-adv-x="891" d="M92 274q0 84 42.5 138.5t107.5 54.5q43 0 70.5 -25t27.5 -65q0 -45 -29.5 -73t-77.5 -28q-8 -18 -12 -35t-4 -34q0 -90 61 -149.5t156 -59.5q123 0 202 84t79 217q0 56 -47 222t-47 274q0 110 175 371l1 1q-83 -91 -186 -142.5t-201 -51.5q-35 0 -61 5t-50 15l-55 -239 q-2 -6 -4.5 -9t-6.5 -4q-3 1 -4.5 3t-1.5 6v6l47 250q-24 18 -36.5 43.5t-12.5 56.5q0 65 45 136t62 71q5 -1 6.5 -2.5t1.5 -3.5q0 -3 -5 -17q-22 -52 -22 -96q0 -64 57 -109t142 -45q73 0 156.5 49.5t150.5 133.5q29 36 59.5 80.5t34.5 44.5q5 -1 7.5 -3t3.5 -6 q0 -7 -29 -51q-152 -228 -152 -411q0 -87 42 -247t42 -239q0 -176 -116 -302t-275 -126q-149 0 -246.5 88.5t-97.5 222.5zM322 1411l225 348h94l223 -348h-49l-221 231l-223 -231h-49z" />
<glyph unicode="&#xcf;" horiz-adv-x="891" d="M92 274q0 84 42.5 138.5t107.5 54.5q43 0 70.5 -25t27.5 -65q0 -45 -29.5 -73t-77.5 -28q-8 -18 -12 -35t-4 -34q0 -90 61 -149.5t156 -59.5q123 0 202 84t79 217q0 56 -47 222t-47 274q0 110 175 371l1 1q-83 -91 -186 -142.5t-201 -51.5q-35 0 -61 5t-50 15l-55 -239 q-2 -6 -4.5 -9t-6.5 -4q-3 1 -4.5 3t-1.5 6v6l47 250q-24 18 -36.5 43.5t-12.5 56.5q0 65 45 136t62 71q5 -1 6.5 -2.5t1.5 -3.5q0 -3 -5 -17q-22 -52 -22 -96q0 -64 57 -109t142 -45q73 0 156.5 49.5t150.5 133.5q29 36 59.5 80.5t34.5 44.5q5 -1 7.5 -3t3.5 -6 q0 -7 -29 -51q-152 -228 -152 -411q0 -87 42 -247t42 -239q0 -176 -116 -302t-275 -126q-149 0 -246.5 88.5t-97.5 222.5zM332 1567q0 35 26.5 61.5t61.5 26.5t61.5 -26.5t26.5 -61.5q0 -38 -25.5 -64.5t-62.5 -26.5t-62.5 26.5t-25.5 64.5zM680 1567q0 35 26.5 61.5 t61.5 26.5t61.5 -26.5t26.5 -61.5q0 -38 -25.5 -64.5t-62.5 -26.5t-62.5 26.5t-25.5 64.5z" />
<glyph unicode="&#xd0;" horiz-adv-x="1671" d="M92 438q0 127 47 253t137 241q140 179 328.5 273.5t407.5 94.5q290 0 471.5 -178t181.5 -456q0 -158 -60.5 -301t-172.5 -252q-67 -64 -144 -101t-141 -37q-71 0 -111.5 32.5t-40.5 88.5q0 136 427 339q69 32 105 50q2 18 2.5 34.5t0.5 35.5q0 229 -89.5 399.5 t-252.5 253.5q-109 -94 -152 -181t-43 -261q0 -55 0.5 -81t2.5 -48h292v-47h-292q0 -9 0.5 -21.5t0.5 -36.5q0 -257 -133 -414t-348 -157q-181 0 -302.5 135t-121.5 342zM242 393q0 -181 82.5 -289t218.5 -108q148 0 228.5 139.5t80.5 399.5v55h-301v47h301v33q0 160 73 289 t238 260q-49 20 -98.5 30.5t-103.5 10.5q-136 0 -259.5 -58t-222.5 -168q-111 -124 -174 -293.5t-63 -347.5zM1135 141q0 -40 27.5 -65t72.5 -25q101 0 182 109t107 286q-223 -102 -306 -169t-83 -136z" />
<glyph unicode="&#xd1;" horiz-adv-x="1712" d="M80 199q0 71 34.5 117t86.5 46q43 0 70.5 -24t27.5 -62q0 -41 -27.5 -65.5t-74.5 -26.5q-1 -9 -1.5 -18t-0.5 -21q0 -62 41.5 -104.5t105.5 -42.5q163 0 289.5 231t126.5 547q0 214 -69.5 345.5t-178.5 131.5q-71 0 -117.5 -51t-46.5 -129q0 -63 34 -101t89 -38 q54 0 106 49q13 12 17 12t6 -1.5t2 -4.5q0 -30 -72.5 -91.5t-148.5 -61.5q-70 0 -112 43t-42 114q0 118 97.5 211.5t228.5 93.5q112 0 194 -68.5t121 -195.5q75 140 144 202t147 62q53 0 150.5 -47t154.5 -47q75 0 169 76q25 20 30 20q3 0 4.5 -2.5t1.5 -5.5q0 -5 -47.5 -52 t-87.5 -93q-153 -176 -222 -345.5t-69 -367.5q0 -169 66 -277t166 -108q50 0 91.5 29.5t84.5 97.5q24 40 44 81.5t23 41.5t6.5 -3.5t3.5 -6.5q0 -7 -17 -45t-42 -80q-58 -100 -123.5 -148.5t-140.5 -48.5q-128 0 -212.5 117t-84.5 297q0 183 101.5 374t330.5 431 q-87 -51 -127 -66.5t-72 -15.5q-53 0 -131 54t-121 54q-50 0 -99 -48t-114 -163q13 -55 19 -101.5t6 -86.5q0 -148 -43 -295.5t-121 -269.5q-90 -141 -196 -214t-222 -73q-102 0 -169.5 68.5t-67.5 169.5zM772 1468q17 88 61 135.5t109 47.5q18 0 40 -4.5t50 -12.5l117 -35 q15 -4 29 -6t26 -2q37 0 60.5 22t34.5 66h43q-19 -90 -63.5 -137t-110.5 -47q-15 0 -33.5 3.5t-44.5 10.5l-117 37q-18 6 -34.5 9t-31.5 3q-35 0 -57 -21t-35 -69h-43z" />
<glyph unicode="&#xd2;" horiz-adv-x="1247" d="M78 518q0 159 70.5 311.5t209.5 292.5q43 44 78 73.5t43 29.5q4 0 7 -2.5t3 -5.5q0 -4 -26 -31.5t-47 -55.5q-101 -129 -148 -259t-47 -281q0 -256 119.5 -415t310.5 -159q215 0 355.5 190.5t140.5 491.5q0 242 -93 394.5t-235 152.5q-96 0 -173 -73.5t-77 -165.5 q0 -60 33.5 -93.5t91.5 -33.5q57 0 113 50q18 15 22 15t6 -2t3 -8q0 -42 -71.5 -99t-150.5 -57q-69 0 -112 44t-43 116q0 135 135.5 247.5t306.5 112.5q175 0 274 -120t99 -334q0 -188 -63 -366t-177 -310q-86 -100 -203.5 -153.5t-250.5 -53.5q-219 0 -361.5 157.5 t-142.5 399.5zM508 1714q0 21 16.5 37t39.5 16q16 0 32 -11t39 -40l242 -305h-49l-273 235q-29 26 -38 39.5t-9 28.5z" />
<glyph unicode="&#xd3;" horiz-adv-x="1247" d="M78 518q0 159 70.5 311.5t209.5 292.5q43 44 78 73.5t43 29.5q4 0 7 -2.5t3 -5.5q0 -4 -26 -31.5t-47 -55.5q-101 -129 -148 -259t-47 -281q0 -256 119.5 -415t310.5 -159q215 0 355.5 190.5t140.5 491.5q0 242 -93 394.5t-235 152.5q-96 0 -173 -73.5t-77 -165.5 q0 -60 33.5 -93.5t91.5 -33.5q57 0 113 50q18 15 22 15t6 -2t3 -8q0 -42 -71.5 -99t-150.5 -57q-69 0 -112 44t-43 116q0 135 135.5 247.5t306.5 112.5q175 0 274 -120t99 -334q0 -188 -63 -366t-177 -310q-86 -100 -203.5 -153.5t-250.5 -53.5q-219 0 -361.5 157.5 t-142.5 399.5zM627 1411l242 305q23 29 39 40t32 11q23 0 39.5 -16t16.5 -37q0 -15 -9 -28.5t-38 -39.5l-273 -235h-49z" />
<glyph unicode="&#xd4;" horiz-adv-x="1247" d="M78 518q0 159 70.5 311.5t209.5 292.5q43 44 78 73.5t43 29.5q4 0 7 -2.5t3 -5.5q0 -4 -26 -31.5t-47 -55.5q-101 -129 -148 -259t-47 -281q0 -256 119.5 -415t310.5 -159q215 0 355.5 190.5t140.5 491.5q0 242 -93 394.5t-235 152.5q-96 0 -173 -73.5t-77 -165.5 q0 -60 33.5 -93.5t91.5 -33.5q57 0 113 50q18 15 22 15t6 -2t3 -8q0 -42 -71.5 -99t-150.5 -57q-69 0 -112 44t-43 116q0 135 135.5 247.5t306.5 112.5q175 0 274 -120t99 -334q0 -188 -63 -366t-177 -310q-86 -100 -203.5 -153.5t-250.5 -53.5q-219 0 -361.5 157.5 t-142.5 399.5zM480 1411l225 348h94l223 -348h-49l-221 231l-223 -231h-49z" />
<glyph unicode="&#xd5;" horiz-adv-x="1247" d="M78 518q0 159 70.5 311.5t209.5 292.5q43 44 78 73.5t43 29.5q4 0 7 -2.5t3 -5.5q0 -4 -26 -31.5t-47 -55.5q-101 -129 -148 -259t-47 -281q0 -256 119.5 -415t310.5 -159q215 0 355.5 190.5t140.5 491.5q0 242 -93 394.5t-235 152.5q-96 0 -173 -73.5t-77 -165.5 q0 -60 33.5 -93.5t91.5 -33.5q57 0 113 50q18 15 22 15t6 -2t3 -8q0 -42 -71.5 -99t-150.5 -57q-69 0 -112 44t-43 116q0 135 135.5 247.5t306.5 112.5q175 0 274 -120t99 -334q0 -188 -63 -366t-177 -310q-86 -100 -203.5 -153.5t-250.5 -53.5q-219 0 -361.5 157.5 t-142.5 399.5zM467 1468q17 88 61 135.5t109 47.5q18 0 40 -4.5t50 -12.5l117 -35q15 -4 29 -6t26 -2q37 0 60.5 22t34.5 66h43q-19 -90 -63.5 -137t-110.5 -47q-15 0 -33.5 3.5t-44.5 10.5l-117 37q-18 6 -34.5 9t-31.5 3q-35 0 -57 -21t-35 -69h-43z" />
<glyph unicode="&#xd6;" horiz-adv-x="1247" d="M78 518q0 159 70.5 311.5t209.5 292.5q43 44 78 73.5t43 29.5q4 0 7 -2.5t3 -5.5q0 -4 -26 -31.5t-47 -55.5q-101 -129 -148 -259t-47 -281q0 -256 119.5 -415t310.5 -159q215 0 355.5 190.5t140.5 491.5q0 242 -93 394.5t-235 152.5q-96 0 -173 -73.5t-77 -165.5 q0 -60 33.5 -93.5t91.5 -33.5q57 0 113 50q18 15 22 15t6 -2t3 -8q0 -42 -71.5 -99t-150.5 -57q-69 0 -112 44t-43 116q0 135 135.5 247.5t306.5 112.5q175 0 274 -120t99 -334q0 -188 -63 -366t-177 -310q-86 -100 -203.5 -153.5t-250.5 -53.5q-219 0 -361.5 157.5 t-142.5 399.5zM490 1567q0 35 26.5 61.5t61.5 26.5t61.5 -26.5t26.5 -61.5q0 -38 -25.5 -64.5t-62.5 -26.5t-62.5 26.5t-25.5 64.5zM838 1567q0 35 26.5 61.5t61.5 26.5t61.5 -26.5t26.5 -61.5q0 -38 -25.5 -64.5t-62.5 -26.5t-62.5 26.5t-25.5 64.5z" />
<glyph unicode="&#xd7;" horiz-adv-x="1706" d="M305 129l481 481l-481 484l70 67l481 -481l481 481l70 -67l-481 -484l481 -481l-70 -68l-481 482l-481 -482z" />
<glyph unicode="&#xd8;" horiz-adv-x="1247" d="M78 518q0 159 70.5 311.5t209.5 292.5q43 44 78 73.5t43 29.5q4 0 7 -2.5t3 -5.5q0 -4 -26 -31.5t-47 -55.5q-102 -132 -148.5 -261.5t-46.5 -278.5q0 -166 57.5 -302t155.5 -206l303 739q-32 -20 -64 -29.5t-67 -9.5q-65 0 -105 43t-40 113q0 136 135.5 248t314.5 112 h23l104 252h58l-107 -258q134 -26 210.5 -144t76.5 -300q0 -192 -62.5 -368.5t-177.5 -309.5q-87 -101 -204 -156t-246 -55q-33 0 -67.5 4.5t-72.5 13.5l-108 -268h-57l116 285q-147 60 -233 201t-86 323zM479 53q51 -20 93 -29.5t81 -9.5q211 0 352.5 193t141.5 491 q0 176 -53.5 313.5t-141.5 190.5l-112 -272q14 9 29 23t20 14q3 0 5.5 -3t2.5 -8q0 -13 -18.5 -33t-63.5 -53zM569 1006q0 -62 35.5 -95.5t100.5 -33.5q13 0 29.5 5.5t35.5 16.5l135 330q-23 8 -44.5 12t-41.5 4q-96 0 -173 -73.5t-77 -165.5z" />
<glyph unicode="&#xd9;" horiz-adv-x="1712" d="M139 993q0 50 28 95t89 94q74 58 145 87t140 29q117 0 178 -69.5t61 -204.5q0 -32 -2.5 -63.5t-7.5 -63.5l-53 -389q-2 -13 -5 -36q-20 -150 -20 -214q0 -113 47 -175.5t131 -62.5q90 0 177 74.5t163 216.5q103 194 135 729q9 144 15 221q26 7 59 13.5t78 13.5l-70 -839 q-7 -87 -11.5 -158.5t-4.5 -110.5q0 -63 17.5 -94t52.5 -31q45 0 87.5 30.5t78.5 88.5q23 39 44 82t25 43q3 0 6.5 -3.5t3.5 -6.5q0 -8 -20 -50.5t-49 -88.5q-55 -91 -123.5 -140t-136.5 -49t-98.5 40.5t-30.5 131.5q0 31 1 53t3 45l16 162q-92 -211 -211.5 -321.5 t-257.5 -110.5q-119 0 -189.5 85.5t-70.5 232.5q0 23 4.5 68.5t11.5 101.5l60 479q4 27 6 51.5t2 46.5q0 101 -48 157t-134 56q-84 0 -143.5 -50.5t-59.5 -121.5q0 -54 35 -89.5t88 -35.5q54 0 106 46q13 11 17 11t7 -2t3 -4q0 -27 -73.5 -85t-149.5 -58q-68 0 -110 39.5 t-42 103.5zM801 1714q0 21 16.5 37t39.5 16q16 0 32 -11t39 -40l242 -305h-49l-273 235q-29 26 -38 39.5t-9 28.5z" />
<glyph unicode="&#xda;" horiz-adv-x="1712" d="M139 993q0 50 28 95t89 94q74 58 145 87t140 29q117 0 178 -69.5t61 -204.5q0 -32 -2.5 -63.5t-7.5 -63.5l-53 -389q-2 -13 -5 -36q-20 -150 -20 -214q0 -113 47 -175.5t131 -62.5q90 0 177 74.5t163 216.5q103 194 135 729q9 144 15 221q26 7 59 13.5t78 13.5l-70 -839 q-7 -87 -11.5 -158.5t-4.5 -110.5q0 -63 17.5 -94t52.5 -31q45 0 87.5 30.5t78.5 88.5q23 39 44 82t25 43q3 0 6.5 -3.5t3.5 -6.5q0 -8 -20 -50.5t-49 -88.5q-55 -91 -123.5 -140t-136.5 -49t-98.5 40.5t-30.5 131.5q0 31 1 53t3 45l16 162q-92 -211 -211.5 -321.5 t-257.5 -110.5q-119 0 -189.5 85.5t-70.5 232.5q0 23 4.5 68.5t11.5 101.5l60 479q4 27 6 51.5t2 46.5q0 101 -48 157t-134 56q-84 0 -143.5 -50.5t-59.5 -121.5q0 -54 35 -89.5t88 -35.5q54 0 106 46q13 11 17 11t7 -2t3 -4q0 -27 -73.5 -85t-149.5 -58q-68 0 -110 39.5 t-42 103.5zM920 1411l242 305q23 29 39 40t32 11q23 0 39.5 -16t16.5 -37q0 -15 -9 -28.5t-38 -39.5l-273 -235h-49z" />
<glyph unicode="&#xdb;" horiz-adv-x="1712" d="M139 993q0 50 28 95t89 94q74 58 145 87t140 29q117 0 178 -69.5t61 -204.5q0 -32 -2.5 -63.5t-7.5 -63.5l-53 -389q-2 -13 -5 -36q-20 -150 -20 -214q0 -113 47 -175.5t131 -62.5q90 0 177 74.5t163 216.5q103 194 135 729q9 144 15 221q26 7 59 13.5t78 13.5l-70 -839 q-7 -87 -11.5 -158.5t-4.5 -110.5q0 -63 17.5 -94t52.5 -31q45 0 87.5 30.5t78.5 88.5q23 39 44 82t25 43q3 0 6.5 -3.5t3.5 -6.5q0 -8 -20 -50.5t-49 -88.5q-55 -91 -123.5 -140t-136.5 -49t-98.5 40.5t-30.5 131.5q0 31 1 53t3 45l16 162q-92 -211 -211.5 -321.5 t-257.5 -110.5q-119 0 -189.5 85.5t-70.5 232.5q0 23 4.5 68.5t11.5 101.5l60 479q4 27 6 51.5t2 46.5q0 101 -48 157t-134 56q-84 0 -143.5 -50.5t-59.5 -121.5q0 -54 35 -89.5t88 -35.5q54 0 106 46q13 11 17 11t7 -2t3 -4q0 -27 -73.5 -85t-149.5 -58q-68 0 -110 39.5 t-42 103.5zM773 1411l225 348h94l223 -348h-49l-221 231l-223 -231h-49z" />
<glyph unicode="&#xdc;" horiz-adv-x="1712" d="M139 993q0 50 28 95t89 94q74 58 145 87t140 29q117 0 178 -69.5t61 -204.5q0 -32 -2.5 -63.5t-7.5 -63.5l-53 -389q-2 -13 -5 -36q-20 -150 -20 -214q0 -113 47 -175.5t131 -62.5q90 0 177 74.5t163 216.5q103 194 135 729q9 144 15 221q26 7 59 13.5t78 13.5l-70 -839 q-7 -87 -11.5 -158.5t-4.5 -110.5q0 -63 17.5 -94t52.5 -31q45 0 87.5 30.5t78.5 88.5q23 39 44 82t25 43q3 0 6.5 -3.5t3.5 -6.5q0 -8 -20 -50.5t-49 -88.5q-55 -91 -123.5 -140t-136.5 -49t-98.5 40.5t-30.5 131.5q0 31 1 53t3 45l16 162q-92 -211 -211.5 -321.5 t-257.5 -110.5q-119 0 -189.5 85.5t-70.5 232.5q0 23 4.5 68.5t11.5 101.5l60 479q4 27 6 51.5t2 46.5q0 101 -48 157t-134 56q-84 0 -143.5 -50.5t-59.5 -121.5q0 -54 35 -89.5t88 -35.5q54 0 106 46q13 11 17 11t7 -2t3 -4q0 -27 -73.5 -85t-149.5 -58q-68 0 -110 39.5 t-42 103.5zM783 1567q0 35 26.5 61.5t61.5 26.5t61.5 -26.5t26.5 -61.5q0 -38 -25.5 -64.5t-62.5 -26.5t-62.5 26.5t-25.5 64.5zM1131 1567q0 35 26.5 61.5t61.5 26.5t61.5 -26.5t26.5 -61.5q0 -38 -25.5 -64.5t-62.5 -26.5t-62.5 26.5t-25.5 64.5z" />
<glyph unicode="&#xdd;" horiz-adv-x="1462" d="M139 993q0 50 28 95t89 94q74 58 145 87t140 29q118 0 178.5 -69.5t60.5 -206.5q0 -28 -2.5 -58t-7.5 -67l-53 -334q-4 -27 -6 -52.5t-2 -49.5q0 -99 46 -155t128 -56q187 0 292 212t105 597q0 83 -1 125t-3 78q34 8 68 14t71 10q-3 -515 -25.5 -833t-66.5 -473 q-63 -224 -201.5 -339.5t-343.5 -115.5q-164 0 -271.5 72.5t-107.5 181.5q0 81 76 164.5t113 83.5q5 -1 8.5 -3.5t3.5 -5.5q0 -2 -8 -12q-55 -71 -55 -172q0 -111 80 -189.5t198 -78.5q216 0 318 219t129 766q-76 -175 -181.5 -268t-228.5 -93q-127 0 -199.5 83t-72.5 229 q0 14 5.5 63t14.5 115l35 248q0 3 1 12q7 60 7 86q0 102 -47.5 157.5t-134.5 55.5q-84 0 -143.5 -50.5t-59.5 -121.5q0 -54 35 -89.5t88 -35.5q54 0 106 46q13 11 17 11t7 -2t3 -4q0 -27 -73.5 -85t-149.5 -58q-68 0 -110 39.5t-42 103.5zM756 1411l242 305q23 29 39 40 t32 11q23 0 39.5 -16t16.5 -37q0 -15 -9 -28.5t-38 -39.5l-273 -235h-49z" />
<glyph unicode="&#xde;" horiz-adv-x="1395" d="M113 276q0 85 41 138t106 53q43 0 70.5 -27t27.5 -67q0 -43 -29 -70t-77 -27q-8 -21 -12 -39.5t-4 -33.5q0 -88 62 -146.5t157 -58.5q166 0 249.5 142.5t83.5 426.5q0 187 6.5 275.5t20.5 146.5q-157 -33 -254.5 -135.5t-97.5 -228.5q0 -51 22 -96t60 -72 q16 -12 39.5 -19t23.5 -14t-3.5 -10.5t-10.5 -3.5q-101 0 -177.5 63t-76.5 156q0 132 139 248t346 147q20 75 77 153t179 193l17 -18q-78 -74 -118 -149t-50 -169h12q214 0 349.5 -91.5t135.5 -231.5q0 -138 -143.5 -244t-390.5 -145q-37 -155 -163.5 -257t-274.5 -102 q-150 0 -246 88t-96 225zM901 354q177 27 281 117t104 213q0 139 -99 227t-259 88q-6 -61 -9.5 -124t-3.5 -127q0 -9 1.5 -54t1.5 -82q0 -86 -4 -143.5t-13 -114.5z" />
<glyph unicode="&#xdf;" horiz-adv-x="729" d="M-10 272q0 5 15 39q77 170 128 353q12 292 110 464t249 172q86 0 140 -62t54 -163q0 -72 -26.5 -142t-77.5 -134q-30 -37 -77.5 -78t-47.5 -53q0 -10 45 -28t78 -36q64 -35 93 -89.5t29 -137.5q0 -155 -93 -278.5t-208 -123.5q-43 0 -67.5 24t-24.5 67q0 78 76.5 132 t212.5 71q1 11 1.5 22.5t0.5 27.5q0 71 -28.5 131.5t-84.5 110.5q-13 13 -39 32q-45 35 -45 52q0 11 34 59q136 195 136 371q0 91 -29 138t-85 47q-96 0 -147.5 -141.5t-63.5 -436.5l-23 -494q0 -11 -2 -60q-13 -333 -24 -678l-125 -48l16 382q2 38 14.5 311t24.5 476 q-29 -84 -52 -145t-38 -92l-31 -66q-2 -4 -5 -6t-5 -2q-4 0 -6 3t-2 9zM399 74q0 -27 12.5 -42.5t34.5 -15.5q49 0 90.5 61.5t57.5 160.5q-87 -9 -141 -55t-54 -109z" />
<glyph unicode="&#xe0;" horiz-adv-x="809" d="M20 180q0 111 85 218.5t126 107.5q4 0 7.5 -3t3.5 -7t-15 -23q-94 -118 -94 -237q0 -72 41.5 -119t101.5 -47q64 0 100 50.5t36 141.5v113q0 59 -32 100.5t-89 59.5l-4 14q11 14 28 30.5t43 38.5q54 -6 89.5 -33t60.5 -79q41 54 63 78t31 24q4 0 7 -2.5t3 -5.5t-10 -21 q-80 -129 -80 -303q0 -100 25 -153t71 -53q35 0 67.5 29t70.5 94q20 32 36.5 68t20.5 36t6 -2t2 -6q0 -7 -17 -44t-42 -81q-55 -93 -114.5 -144t-112.5 -51q-49 0 -80.5 40.5t-38.5 112.5q-46 -73 -103 -113t-116 -40q-74 0 -125.5 60.5t-51.5 150.5zM151 1026q0 21 16.5 37 t39.5 16q16 0 32 -11t39 -40l242 -305h-49l-273 235q-29 26 -38 39.5t-9 28.5z" />
<glyph unicode="&#xe1;" horiz-adv-x="809" d="M20 180q0 111 85 218.5t126 107.5q4 0 7.5 -3t3.5 -7t-15 -23q-94 -118 -94 -237q0 -72 41.5 -119t101.5 -47q64 0 100 50.5t36 141.5v113q0 59 -32 100.5t-89 59.5l-4 14q11 14 28 30.5t43 38.5q54 -6 89.5 -33t60.5 -79q41 54 63 78t31 24q4 0 7 -2.5t3 -5.5t-10 -21 q-80 -129 -80 -303q0 -100 25 -153t71 -53q35 0 67.5 29t70.5 94q20 32 36.5 68t20.5 36t6 -2t2 -6q0 -7 -17 -44t-42 -81q-55 -93 -114.5 -144t-112.5 -51q-49 0 -80.5 40.5t-38.5 112.5q-46 -73 -103 -113t-116 -40q-74 0 -125.5 60.5t-51.5 150.5zM270 723l242 305 q23 29 39 40t32 11q23 0 39.5 -16t16.5 -37q0 -15 -9 -28.5t-38 -39.5l-273 -235h-49z" />
<glyph unicode="&#xe2;" horiz-adv-x="809" d="M20 180q0 111 85 218.5t126 107.5q4 0 7.5 -3t3.5 -7t-15 -23q-94 -118 -94 -237q0 -72 41.5 -119t101.5 -47q64 0 100 50.5t36 141.5v113q0 59 -32 100.5t-89 59.5l-4 14q11 14 28 30.5t43 38.5q54 -6 89.5 -33t60.5 -79q41 54 63 78t31 24q4 0 7 -2.5t3 -5.5t-10 -21 q-80 -129 -80 -303q0 -100 25 -153t71 -53q35 0 67.5 29t70.5 94q20 32 36.5 68t20.5 36t6 -2t2 -6q0 -7 -17 -44t-42 -81q-55 -93 -114.5 -144t-112.5 -51q-49 0 -80.5 40.5t-38.5 112.5q-46 -73 -103 -113t-116 -40q-74 0 -125.5 60.5t-51.5 150.5zM123 723l225 348h94 l223 -348h-49l-221 231l-223 -231h-49z" />
<glyph unicode="&#xe3;" horiz-adv-x="809" d="M20 180q0 111 85 218.5t126 107.5q4 0 7.5 -3t3.5 -7t-15 -23q-94 -118 -94 -237q0 -72 41.5 -119t101.5 -47q64 0 100 50.5t36 141.5v113q0 59 -32 100.5t-89 59.5l-4 14q11 14 28 30.5t43 38.5q54 -6 89.5 -33t60.5 -79q41 54 63 78t31 24q4 0 7 -2.5t3 -5.5t-10 -21 q-80 -129 -80 -303q0 -100 25 -153t71 -53q35 0 67.5 29t70.5 94q20 32 36.5 68t20.5 36t6 -2t2 -6q0 -7 -17 -44t-42 -81q-55 -93 -114.5 -144t-112.5 -51q-49 0 -80.5 40.5t-38.5 112.5q-46 -73 -103 -113t-116 -40q-74 0 -125.5 60.5t-51.5 150.5zM110 780 q17 88 61 135.5t109 47.5q18 0 40 -4.5t50 -12.5l117 -35q15 -4 29 -6t26 -2q37 0 60.5 22t34.5 66h43q-19 -90 -63.5 -137t-110.5 -47q-15 0 -33.5 3.5t-44.5 10.5l-117 37q-18 6 -34.5 9t-31.5 3q-35 0 -57 -21t-35 -69h-43z" />
<glyph unicode="&#xe4;" horiz-adv-x="809" d="M20 180q0 111 85 218.5t126 107.5q4 0 7.5 -3t3.5 -7t-15 -23q-94 -118 -94 -237q0 -72 41.5 -119t101.5 -47q64 0 100 50.5t36 141.5v113q0 59 -32 100.5t-89 59.5l-4 14q11 14 28 30.5t43 38.5q54 -6 89.5 -33t60.5 -79q41 54 63 78t31 24q4 0 7 -2.5t3 -5.5t-10 -21 q-80 -129 -80 -303q0 -100 25 -153t71 -53q35 0 67.5 29t70.5 94q20 32 36.5 68t20.5 36t6 -2t2 -6q0 -7 -17 -44t-42 -81q-55 -93 -114.5 -144t-112.5 -51q-49 0 -80.5 40.5t-38.5 112.5q-46 -73 -103 -113t-116 -40q-74 0 -125.5 60.5t-51.5 150.5zM133 879 q0 35 26.5 61.5t61.5 26.5t61.5 -26.5t26.5 -61.5q0 -38 -25.5 -64.5t-62.5 -26.5t-62.5 26.5t-25.5 64.5zM481 879q0 35 26.5 61.5t61.5 26.5t61.5 -26.5t26.5 -61.5q0 -38 -25.5 -64.5t-62.5 -26.5t-62.5 26.5t-25.5 64.5z" />
<glyph unicode="&#xe5;" horiz-adv-x="809" d="M20 180q0 111 85 218.5t126 107.5q4 0 7.5 -3t3.5 -7t-15 -23q-94 -118 -94 -237q0 -72 41.5 -119t101.5 -47q64 0 100 50.5t36 141.5v113q0 59 -32 100.5t-89 59.5l-4 14q11 14 28 30.5t43 38.5q54 -6 89.5 -33t60.5 -79q41 54 63 78t31 24q4 0 7 -2.5t3 -5.5t-10 -21 q-80 -129 -80 -303q0 -100 25 -153t71 -53q35 0 67.5 29t70.5 94q20 32 36.5 68t20.5 36t6 -2t2 -6q0 -7 -17 -44t-42 -81q-55 -93 -114.5 -144t-112.5 -51q-49 0 -80.5 40.5t-38.5 112.5q-46 -73 -103 -113t-116 -40q-74 0 -125.5 60.5t-51.5 150.5zM158 911 q0 99 67.5 166.5t165.5 67.5q97 0 166.5 -68.5t69.5 -165.5q0 -96 -69.5 -164.5t-166.5 -68.5q-98 0 -165.5 68t-67.5 165zM240 911q0 -64 44 -107.5t109 -43.5t108.5 43.5t43.5 107.5q0 63 -44.5 107.5t-107.5 44.5q-64 0 -108.5 -44t-44.5 -108z" />
<glyph unicode="&#xe6;" horiz-adv-x="940" d="M20 180q0 111 85 218.5t126 107.5q4 0 7.5 -3t3.5 -7t-15 -23q-94 -118 -94 -237q0 -71 41.5 -117.5t101.5 -46.5q35 0 63.5 16t55.5 51q-2 15 -3 29t-1 31q0 27 8.5 70.5t28.5 121.5q-15 52 -52 91t-85 53l-4 14q11 14 28 30.5t43 38.5q54 -6 89.5 -33t60.5 -79 q40 71 56 94t24 23q4 0 7 -4t3 -9l-12.5 -27t-22.5 -57q62 45 114 65.5t103 20.5q56 0 89.5 -30t33.5 -80q0 -82 -79 -130t-310 -91q-1 -11 -1.5 -20t-0.5 -17q0 -80 45 -126t123 -46q62 0 116 31t93 90q19 29 36 67.5t21 38.5q3 0 6.5 -3.5t3.5 -6.5q0 -7 -17.5 -45.5 t-41.5 -77.5q-58 -94 -135 -144.5t-162 -50.5q-74 0 -126.5 35.5t-72.5 97.5q-43 -64 -96 -98.5t-108 -34.5q-75 0 -126 60t-51 149zM518 311q130 30 195 76t65 109q0 27 -16.5 45t-42.5 18q-63 0 -123 -71t-78 -177z" />
<glyph unicode="&#xe7;" horiz-adv-x="582" d="M37 217q0 169 102 283t252 114q52 0 91 -16.5t69 -50.5q-23 -31 -43.5 -52t-42.5 -36q-36 43 -77.5 66.5t-82.5 23.5q-71 0 -119.5 -66t-48.5 -166q0 -107 55.5 -176t139.5 -69q55 0 107 32t89 89q21 31 37.5 68.5t20.5 37.5q3 0 6.5 -3.5t3.5 -6.5q0 -9 -17 -46.5 t-42 -78.5q-57 -95 -128 -144t-153 -49q-99 0 -159 67.5t-60 178.5zM59 -373l27 66q63 -32 123 -50t98 -18q64 0 95.5 25t31.5 76q0 42 -30 67t-83 25q-10 0 -32 -3t-31 -3v188h55v-121q18 2 33.5 3t30.5 1q74 0 120 -44.5t46 -117.5q0 -72 -57 -116.5t-150 -44.5 q-56 0 -125 16.5t-152 50.5z" />
<glyph unicode="&#xe8;" horiz-adv-x="571" d="M23 182q0 166 120 298t263 132q58 0 92 -30t34 -80q0 -83 -78.5 -130.5t-308.5 -90.5q-1 -11 -1.5 -20t-0.5 -17q0 -81 44.5 -126.5t121.5 -45.5q63 0 116.5 31t92.5 90q20 29 36.5 67.5t20.5 38.5t7.5 -3.5t3.5 -6.5q0 -7 -17.5 -45.5t-42.5 -77.5 q-58 -94 -134.5 -144.5t-162.5 -50.5q-96 0 -151 56.5t-55 154.5zM123 1026q0 21 16.5 37t39.5 16q16 0 32 -11t39 -40l242 -305h-49l-273 235q-29 26 -38 39.5t-9 28.5zM150 311q129 29 193.5 75.5t64.5 109.5q0 27 -17 45t-43 18q-63 0 -121.5 -71t-76.5 -177z" />
<glyph unicode="&#xe9;" horiz-adv-x="571" d="M23 182q0 166 120 298t263 132q58 0 92 -30t34 -80q0 -83 -78.5 -130.5t-308.5 -90.5q-1 -11 -1.5 -20t-0.5 -17q0 -81 44.5 -126.5t121.5 -45.5q63 0 116.5 31t92.5 90q20 29 36.5 67.5t20.5 38.5t7.5 -3.5t3.5 -6.5q0 -7 -17.5 -45.5t-42.5 -77.5 q-58 -94 -134.5 -144.5t-162.5 -50.5q-96 0 -151 56.5t-55 154.5zM150 311q129 29 193.5 75.5t64.5 109.5q0 27 -17 45t-43 18q-63 0 -121.5 -71t-76.5 -177zM242 723l242 305q23 29 39 40t32 11q23 0 39.5 -16t16.5 -37q0 -15 -9 -28.5t-38 -39.5l-273 -235h-49z" />
<glyph unicode="&#xea;" horiz-adv-x="571" d="M23 182q0 166 120 298t263 132q58 0 92 -30t34 -80q0 -83 -78.5 -130.5t-308.5 -90.5q-1 -11 -1.5 -20t-0.5 -17q0 -81 44.5 -126.5t121.5 -45.5q63 0 116.5 31t92.5 90q20 29 36.5 67.5t20.5 38.5t7.5 -3.5t3.5 -6.5q0 -7 -17.5 -45.5t-42.5 -77.5 q-58 -94 -134.5 -144.5t-162.5 -50.5q-96 0 -151 56.5t-55 154.5zM95 723l225 348h94l223 -348h-49l-221 231l-223 -231h-49zM150 311q129 29 193.5 75.5t64.5 109.5q0 27 -17 45t-43 18q-63 0 -121.5 -71t-76.5 -177z" />
<glyph unicode="&#xeb;" horiz-adv-x="571" d="M23 182q0 166 120 298t263 132q58 0 92 -30t34 -80q0 -83 -78.5 -130.5t-308.5 -90.5q-1 -11 -1.5 -20t-0.5 -17q0 -81 44.5 -126.5t121.5 -45.5q63 0 116.5 31t92.5 90q20 29 36.5 67.5t20.5 38.5t7.5 -3.5t3.5 -6.5q0 -7 -17.5 -45.5t-42.5 -77.5 q-58 -94 -134.5 -144.5t-162.5 -50.5q-96 0 -151 56.5t-55 154.5zM105 879q0 35 26.5 61.5t61.5 26.5t61.5 -26.5t26.5 -61.5q0 -38 -25.5 -64.5t-62.5 -26.5t-62.5 26.5t-25.5 64.5zM150 311q129 29 193.5 75.5t64.5 109.5q0 27 -17 45t-43 18q-63 0 -121.5 -71t-76.5 -177 zM453 879q0 35 26.5 61.5t61.5 26.5t61.5 -26.5t26.5 -61.5q0 -38 -25.5 -64.5t-62.5 -26.5t-62.5 26.5t-25.5 64.5z" />
<glyph unicode="&#xec;" horiz-adv-x="451" d="M-43 1026q0 21 16.5 37t39.5 16q16 0 32 -11t39 -40l242 -305h-49l-273 235q-29 26 -38 39.5t-9 28.5zM-10 272q0 4 13 33q61 132 103 273q35 9 69.5 15t69.5 9q-17 -182 -23.5 -276.5t-6.5 -153.5q0 -60 15.5 -86.5t50.5 -26.5q30 0 55 26t65 108q15 29 32 67.5t22 38.5 q4 0 6 -2t2 -6q0 -5 -16.5 -46.5t-38.5 -88.5q-45 -94 -91.5 -134t-109.5 -40q-60 0 -87.5 41t-27.5 133q0 10 0.5 19.5t1.5 19.5l31 364q-19 -59 -41 -116t-45 -109l-31 -66q-2 -4 -5 -6t-5 -2q-4 0 -6 3t-2 9z" />
<glyph unicode="&#xed;" horiz-adv-x="451" d="M-10 272q0 4 13 33q61 132 103 273q35 9 69.5 15t69.5 9q-17 -182 -23.5 -276.5t-6.5 -153.5q0 -60 15.5 -86.5t50.5 -26.5q30 0 55 26t65 108q15 29 32 67.5t22 38.5q4 0 6 -2t2 -6q0 -5 -16.5 -46.5t-38.5 -88.5q-45 -94 -91.5 -134t-109.5 -40q-60 0 -87.5 41 t-27.5 133q0 10 0.5 19.5t1.5 19.5l31 364q-19 -59 -41 -116t-45 -109l-31 -66q-2 -4 -5 -6t-5 -2q-4 0 -6 3t-2 9zM76 723l242 305q23 29 39 40t32 11q23 0 39.5 -16t16.5 -37q0 -15 -9 -28.5t-38 -39.5l-273 -235h-49z" />
<glyph unicode="&#xee;" horiz-adv-x="451" d="M-71 723l225 348h94l223 -348h-49l-221 231l-223 -231h-49zM-10 272q0 4 13 33q61 132 103 273q35 9 69.5 15t69.5 9q-17 -182 -23.5 -276.5t-6.5 -153.5q0 -60 15.5 -86.5t50.5 -26.5q30 0 55 26t65 108q15 29 32 67.5t22 38.5q4 0 6 -2t2 -6q0 -5 -16.5 -46.5 t-38.5 -88.5q-45 -94 -91.5 -134t-109.5 -40q-60 0 -87.5 41t-27.5 133q0 10 0.5 19.5t1.5 19.5l31 364q-19 -59 -41 -116t-45 -109l-31 -66q-2 -4 -5 -6t-5 -2q-4 0 -6 3t-2 9z" />
<glyph unicode="&#xef;" horiz-adv-x="451" d="M-61 879q0 35 26.5 61.5t61.5 26.5t61.5 -26.5t26.5 -61.5q0 -38 -25.5 -64.5t-62.5 -26.5t-62.5 26.5t-25.5 64.5zM-10 272q0 4 13 33q61 132 103 273q35 9 69.5 15t69.5 9q-17 -182 -23.5 -276.5t-6.5 -153.5q0 -60 15.5 -86.5t50.5 -26.5q30 0 55 26t65 108 q15 29 32 67.5t22 38.5q4 0 6 -2t2 -6q0 -5 -16.5 -46.5t-38.5 -88.5q-45 -94 -91.5 -134t-109.5 -40q-60 0 -87.5 41t-27.5 133q0 10 0.5 19.5t1.5 19.5l31 364q-19 -59 -41 -116t-45 -109l-31 -66q-2 -4 -5 -6t-5 -2q-4 0 -6 3t-2 9zM287 879q0 35 26.5 61.5t61.5 26.5 t61.5 -26.5t26.5 -61.5q0 -38 -25.5 -64.5t-62.5 -26.5t-62.5 26.5t-25.5 64.5z" />
<glyph unicode="&#xf0;" horiz-adv-x="588" d="M0 1010q0 12 59 31.5t125 19.5q79 0 148 -33t117 -94l143 88l24 -39l-141 -90q50 -79 75 -172t25 -197q0 -217 -108 -385t-236 -168q-90 0 -144 60.5t-54 161.5q0 87 40.5 164t119.5 141q49 41 105.5 67.5t84.5 26.5q1 0 2.5 -2t1.5 -4q0 -5 -41 -30t-80 -58 q-56 -49 -86 -112.5t-30 -133.5q0 -81 38.5 -131.5t100.5 -50.5q92 0 151.5 98.5t59.5 259.5q0 103 -33.5 208.5t-93.5 194.5l-213 -135l-25 39l209 133q-54 70 -122 107t-140 37q-24 0 -49.5 -5.5t-26.5 -5.5q-3 1 -4.5 3.5t-1.5 5.5z" />
<glyph unicode="&#xf1;" horiz-adv-x="809" d="M-10 272q0 4 13 33q61 132 103 273q35 9 69.5 15t69.5 9q-12 -173 -25 -312t-27 -263q75 305 152.5 445t170.5 140q46 0 66 -28t20 -92q0 -1 -2.5 -27t-3.5 -51l-12 -217q-1 -9 -1.5 -18.5t-0.5 -22.5q0 -44 11.5 -65t35.5 -21q29 0 57 26.5t70 96.5q20 33 37 69.5 t20 36.5t6.5 -3.5t3.5 -6.5q0 -6 -17.5 -45t-41.5 -80q-52 -86 -105.5 -131t-103.5 -45q-47 0 -73.5 31.5t-26.5 86.5q0 3 1.5 22.5l4.5 58.5l12 198q1 12 1.5 26.5t0.5 39.5q0 26 -9.5 39.5t-29.5 13.5q-50 0 -112 -135.5t-111 -358.5l-139 -22q19 175 31 312.5t20 260.5 q-19 -60 -40.5 -116.5t-45.5 -110.5l-31 -66q-2 -4 -5 -6t-5 -2q-4 0 -6 3t-2 9zM84 780q17 88 61 135.5t109 47.5q18 0 40 -4.5t50 -12.5l117 -35q15 -4 29 -6t26 -2q37 0 60.5 22t34.5 66h43q-19 -90 -63.5 -137t-110.5 -47q-15 0 -33.5 3.5t-44.5 10.5l-117 37 q-18 6 -34.5 9t-31.5 3q-35 0 -57 -21t-35 -69h-43z" />
<glyph unicode="&#xf2;" d="M25 188q0 100 70 199.5t100 99.5q5 0 8.5 -3t3.5 -7t-13 -25q-61 -103 -61 -186q0 -92 46.5 -147.5t121.5 -55.5q81 0 136 67.5t55 168.5q0 92 -52.5 149.5t-136.5 57.5q-8 0 -32 -3q-10 -1 -15 -1l-12 10q11 27 25 51t30 45q21 3 30.5 3.5t18.5 0.5q97 0 153 -63.5 t56 -173.5q0 -159 -101.5 -281.5t-226.5 -122.5q-94 0 -149 58.5t-55 158.5zM86 1026q0 21 16.5 37t39.5 16q16 0 32 -11t39 -40l242 -305h-49l-273 235q-29 26 -38 39.5t-9 28.5z" />
<glyph unicode="&#xf3;" d="M25 188q0 100 70 199.5t100 99.5q5 0 8.5 -3t3.5 -7t-13 -25q-61 -103 -61 -186q0 -92 46.5 -147.5t121.5 -55.5q81 0 136 67.5t55 168.5q0 92 -52.5 149.5t-136.5 57.5q-8 0 -32 -3q-10 -1 -15 -1l-12 10q11 27 25 51t30 45q21 3 30.5 3.5t18.5 0.5q97 0 153 -63.5 t56 -173.5q0 -159 -101.5 -281.5t-226.5 -122.5q-94 0 -149 58.5t-55 158.5zM205 723l242 305q23 29 39 40t32 11q23 0 39.5 -16t16.5 -37q0 -15 -9 -28.5t-38 -39.5l-273 -235h-49z" />
<glyph unicode="&#xf4;" d="M25 188q0 100 70 199.5t100 99.5q5 0 8.5 -3t3.5 -7t-13 -25q-61 -103 -61 -186q0 -92 46.5 -147.5t121.5 -55.5q81 0 136 67.5t55 168.5q0 92 -52.5 149.5t-136.5 57.5q-8 0 -32 -3q-10 -1 -15 -1l-12 10q11 27 25 51t30 45q21 3 30.5 3.5t18.5 0.5q97 0 153 -63.5 t56 -173.5q0 -159 -101.5 -281.5t-226.5 -122.5q-94 0 -149 58.5t-55 158.5zM58 723l225 348h94l223 -348h-49l-221 231l-223 -231h-49z" />
<glyph unicode="&#xf5;" d="M25 188q0 100 70 199.5t100 99.5q5 0 8.5 -3t3.5 -7t-13 -25q-61 -103 -61 -186q0 -92 46.5 -147.5t121.5 -55.5q81 0 136 67.5t55 168.5q0 92 -52.5 149.5t-136.5 57.5q-8 0 -32 -3q-10 -1 -15 -1l-12 10q11 27 25 51t30 45q21 3 30.5 3.5t18.5 0.5q97 0 153 -63.5 t56 -173.5q0 -159 -101.5 -281.5t-226.5 -122.5q-94 0 -149 58.5t-55 158.5zM45 780q17 88 61 135.5t109 47.5q18 0 40 -4.5t50 -12.5l117 -35q15 -4 29 -6t26 -2q37 0 60.5 22t34.5 66h43q-19 -90 -63.5 -137t-110.5 -47q-15 0 -33.5 3.5t-44.5 10.5l-117 37q-18 6 -34.5 9 t-31.5 3q-35 0 -57 -21t-35 -69h-43z" />
<glyph unicode="&#xf6;" d="M25 188q0 100 70 199.5t100 99.5q5 0 8.5 -3t3.5 -7t-13 -25q-61 -103 -61 -186q0 -92 46.5 -147.5t121.5 -55.5q81 0 136 67.5t55 168.5q0 92 -52.5 149.5t-136.5 57.5q-8 0 -32 -3q-10 -1 -15 -1l-12 10q11 27 25 51t30 45q21 3 30.5 3.5t18.5 0.5q97 0 153 -63.5 t56 -173.5q0 -159 -101.5 -281.5t-226.5 -122.5q-94 0 -149 58.5t-55 158.5zM68 879q0 35 26.5 61.5t61.5 26.5t61.5 -26.5t26.5 -61.5q0 -38 -25.5 -64.5t-62.5 -26.5t-62.5 26.5t-25.5 64.5zM416 879q0 35 26.5 61.5t61.5 26.5t61.5 -26.5t26.5 -61.5q0 -38 -25.5 -64.5 t-62.5 -26.5t-62.5 26.5t-25.5 64.5z" />
<glyph unicode="&#xf7;" horiz-adv-x="1706" d="M254 561v98h1198v-98h-1198zM748 258q0 44 31 75.5t75 31.5q45 0 76 -31t31 -76q0 -44 -31 -75t-76 -31t-75.5 31t-30.5 75zM748 963q0 44 31.5 76t74.5 32q44 0 75.5 -32t31.5 -76q0 -45 -31 -76t-76 -31t-75.5 30.5t-30.5 76.5z" />
<glyph unicode="&#xf8;" d="M25 188q0 100 69.5 199.5t100.5 99.5q5 0 8.5 -3t3.5 -7t-13 -25q-61 -103 -61 -186q0 -59 18.5 -100.5t59.5 -73.5l176 395q-18 10 -37.5 14.5t-44.5 4.5q-9 0 -37 -3q-8 -1 -12 -1l-12 10q11 27 25 51t30 45q21 3 30.5 3.5t18.5 0.5q17 0 36 -3t50 -11l101 219h45 l-107 -242q43 -34 63.5 -83.5t20.5 -116.5q0 -161 -100.5 -281.5t-233.5 -120.5h-22l-103 -231h-45l107 238q-66 21 -100.5 74.5t-34.5 133.5zM248 74q21 -4 37.5 -6t25.5 -2q74 0 127.5 68t53.5 167q0 52 -18 93t-52 69z" />
<glyph unicode="&#xf9;" horiz-adv-x="809" d="M-10 272q0 4 13 33q58 131 103 270q31 12 65 17.5t83 5.5q-12 -178 -19.5 -298t-7.5 -146q0 -45 12 -64.5t40 -19.5q59 0 122.5 106t69.5 231l8 168q26 12 54 17.5t59 5.5h16q-12 -175 -19 -295.5t-7 -150.5q0 -41 11.5 -61.5t35.5 -20.5q29 0 57 26.5t70 96.5 q20 33 37 69.5t20 36.5t6.5 -3.5t3.5 -6.5q0 -7 -17 -45t-42 -80q-51 -88 -105.5 -133t-107.5 -45q-46 0 -69 33t-23 98q0 30 2 64.5t6 72.5q-67 -142 -127.5 -205t-128.5 -63q-56 0 -82.5 36t-26.5 111q0 7 4 58q12 190 19 370q-19 -60 -40.5 -116.5t-45.5 -110.5l-31 -66 q-2 -4 -5 -6t-5 -2q-4 0 -6 3t-2 9zM147 1026q0 21 16.5 37t39.5 16q16 0 32 -11t39 -40l242 -305h-49l-273 235q-29 26 -38 39.5t-9 28.5z" />
<glyph unicode="&#xfa;" horiz-adv-x="809" d="M-10 272q0 4 13 33q58 131 103 270q31 12 65 17.5t83 5.5q-12 -178 -19.5 -298t-7.5 -146q0 -45 12 -64.5t40 -19.5q59 0 122.5 106t69.5 231l8 168q26 12 54 17.5t59 5.5h16q-12 -175 -19 -295.5t-7 -150.5q0 -41 11.5 -61.5t35.5 -20.5q29 0 57 26.5t70 96.5 q20 33 37 69.5t20 36.5t6.5 -3.5t3.5 -6.5q0 -7 -17 -45t-42 -80q-51 -88 -105.5 -133t-107.5 -45q-46 0 -69 33t-23 98q0 30 2 64.5t6 72.5q-67 -142 -127.5 -205t-128.5 -63q-56 0 -82.5 36t-26.5 111q0 7 4 58q12 190 19 370q-19 -60 -40.5 -116.5t-45.5 -110.5l-31 -66 q-2 -4 -5 -6t-5 -2q-4 0 -6 3t-2 9zM266 723l242 305q23 29 39 40t32 11q23 0 39.5 -16t16.5 -37q0 -15 -9 -28.5t-38 -39.5l-273 -235h-49z" />
<glyph unicode="&#xfb;" horiz-adv-x="809" d="M-10 272q0 4 13 33q58 131 103 270q31 12 65 17.5t83 5.5q-12 -178 -19.5 -298t-7.5 -146q0 -45 12 -64.5t40 -19.5q59 0 122.5 106t69.5 231l8 168q26 12 54 17.5t59 5.5h16q-12 -175 -19 -295.5t-7 -150.5q0 -41 11.5 -61.5t35.5 -20.5q29 0 57 26.5t70 96.5 q20 33 37 69.5t20 36.5t6.5 -3.5t3.5 -6.5q0 -7 -17 -45t-42 -80q-51 -88 -105.5 -133t-107.5 -45q-46 0 -69 33t-23 98q0 30 2 64.5t6 72.5q-67 -142 -127.5 -205t-128.5 -63q-56 0 -82.5 36t-26.5 111q0 7 4 58q12 190 19 370q-19 -60 -40.5 -116.5t-45.5 -110.5l-31 -66 q-2 -4 -5 -6t-5 -2q-4 0 -6 3t-2 9zM119 723l225 348h94l223 -348h-49l-221 231l-223 -231h-49z" />
<glyph unicode="&#xfc;" horiz-adv-x="809" d="M-10 272q0 4 13 33q58 131 103 270q31 12 65 17.5t83 5.5q-12 -178 -19.5 -298t-7.5 -146q0 -45 12 -64.5t40 -19.5q59 0 122.5 106t69.5 231l8 168q26 12 54 17.5t59 5.5h16q-12 -175 -19 -295.5t-7 -150.5q0 -41 11.5 -61.5t35.5 -20.5q29 0 57 26.5t70 96.5 q20 33 37 69.5t20 36.5t6.5 -3.5t3.5 -6.5q0 -7 -17 -45t-42 -80q-51 -88 -105.5 -133t-107.5 -45q-46 0 -69 33t-23 98q0 30 2 64.5t6 72.5q-67 -142 -127.5 -205t-128.5 -63q-56 0 -82.5 36t-26.5 111q0 7 4 58q12 190 19 370q-19 -60 -40.5 -116.5t-45.5 -110.5l-31 -66 q-2 -4 -5 -6t-5 -2q-4 0 -6 3t-2 9zM129 879q0 35 26.5 61.5t61.5 26.5t61.5 -26.5t26.5 -61.5q0 -38 -25.5 -64.5t-62.5 -26.5t-62.5 26.5t-25.5 64.5zM477 879q0 35 26.5 61.5t61.5 26.5t61.5 -26.5t26.5 -61.5q0 -38 -25.5 -64.5t-62.5 -26.5t-62.5 26.5t-25.5 64.5z" />
<glyph unicode="&#xfd;" horiz-adv-x="711" d="M-10 272q0 4 13 33q58 131 103 270q35 14 71 20.5t77 6.5q-12 -182 -19.5 -302t-7.5 -146q0 -45 12 -64.5t40 -19.5q59 0 122.5 106t69.5 231l8 168q29 11 61.5 17.5t67.5 9.5l-30 -518q58 66 97.5 140.5l39.5 74.5q3 0 6.5 -3.5t3.5 -6.5q0 -22 -45 -102t-104 -139 q-10 -334 -98 -490t-267 -156q-78 0 -127 42.5t-49 109.5q0 108 259 295q103 73 161 119q3 61 6 132.5t6 152.5q-67 -141 -127.5 -204t-128.5 -63q-56 0 -82.5 36t-26.5 111q0 12 5 65q15 191 18 363q-19 -60 -40.5 -116.5t-45.5 -110.5l-31 -66q-2 -4 -5 -6t-5 -2 q-4 0 -6 3t-2 9zM145 -424q0 -55 32 -90t83 -35q96 0 138.5 99t56.5 380q-171 -128 -240.5 -208.5t-69.5 -145.5zM272 723l242 305q23 29 39 40t32 11q23 0 39.5 -16t16.5 -37q0 -15 -9 -28.5t-38 -39.5l-273 -235h-49z" />
<glyph unicode="&#xfe;" horiz-adv-x="688" d="M-10 272q0 4 13 33q80 176 130 377q5 90 7.5 178.5t2.5 175.5l125 51q-13 -167 -22 -377t-17 -524q22 -63 75.5 -102t115.5 -39q72 0 117 57.5t45 149.5q0 108 -63 175t-165 67h-8l-8 8l57 106q10 1 19.5 1.5t19.5 0.5q89 0 149 -81.5t60 -204.5q0 -143 -83 -248 t-187 -105q-38 0 -78.5 14t-73.5 38q-7 -188 -15 -538l-1 -36l-121 -47q15 321 25 608.5t16 550.5q-20 -61 -41.5 -118.5t-44.5 -108.5l-31 -66q-1 -3 -4 -5.5t-6 -2.5q-4 0 -6 3t-2 9z" />
<glyph unicode="&#xff;" horiz-adv-x="711" d="M-10 272q0 4 13 33q58 131 103 270q35 14 71 20.5t77 6.5q-12 -182 -19.5 -302t-7.5 -146q0 -45 12 -64.5t40 -19.5q59 0 122.5 106t69.5 231l8 168q29 11 61.5 17.5t67.5 9.5l-30 -518q58 66 97.5 140.5l39.5 74.5q3 0 6.5 -3.5t3.5 -6.5q0 -22 -45 -102t-104 -139 q-10 -334 -98 -490t-267 -156q-78 0 -127 42.5t-49 109.5q0 108 259 295q103 73 161 119q3 61 6 132.5t6 152.5q-67 -141 -127.5 -204t-128.5 -63q-56 0 -82.5 36t-26.5 111q0 12 5 65q15 191 18 363q-19 -60 -40.5 -116.5t-45.5 -110.5l-31 -66q-2 -4 -5 -6t-5 -2 q-4 0 -6 3t-2 9zM135 879q0 35 26.5 61.5t61.5 26.5t61.5 -26.5t26.5 -61.5q0 -38 -25.5 -64.5t-62.5 -26.5t-62.5 26.5t-25.5 64.5zM145 -424q0 -55 32 -90t83 -35q96 0 138.5 99t56.5 380q-171 -128 -240.5 -208.5t-69.5 -145.5zM483 879q0 35 26.5 61.5t61.5 26.5 t61.5 -26.5t26.5 -61.5q0 -38 -25.5 -64.5t-62.5 -26.5t-62.5 26.5t-25.5 64.5z" />
<glyph unicode="&#x152;" horiz-adv-x="1835" d="M78 518q0 160 69 316.5t197 287.5q49 51 78 77t37 26q5 -1 7.5 -3.5t2.5 -4.5q0 -4 -24.5 -31.5t-45.5 -55.5q-97 -130 -140.5 -259t-43.5 -281q0 -256 113.5 -415t294.5 -159q102 0 190.5 51.5t153.5 147.5q-1 5 -2 14q-7 51 -7 70q0 62 31.5 124t95.5 128q5 35 7 68 t2 63q0 252 -87 407.5t-225 155.5q-91 0 -164 -73.5t-73 -165.5q0 -59 32 -93t87 -34q46 0 86 32.5t41 32.5q3 0 5 -2t3 -8q0 -42 -68 -99t-141 -57q-66 0 -107 44.5t-41 115.5q0 135 128 247.5t290 112.5q98 0 171 -41t116 -120q50 80 126.5 120.5t178.5 40.5 q132 0 217.5 -64.5t85.5 -158.5q0 -72 -62.5 -124t-131.5 -52q-7 0 -10.5 1t-4.5 3q0 3 15 15q84 69 84 159q0 82 -52.5 133.5t-134.5 51.5q-89 0 -146 -63t-57 -163q0 -81 41.5 -144t122.5 -106q34 -18 78.5 -30.5t44.5 -24.5q0 -9 -47.5 -20.5t-87.5 -28.5 q-137 -58 -220 -173.5t-83 -244.5q0 -118 70 -193t180 -75q118 0 202 83.5t84 199.5q0 76 -40 121.5t-107 45.5q-12 0 -25 -3t-16 -3q-4 0 -7 3t-3 6q0 12 45 28.5t98 16.5q87 0 140 -55.5t53 -145.5q0 -126 -130 -229t-300 -103q-126 0 -223 54t-142 149 q-84 -98 -195 -150.5t-233 -52.5q-207 0 -342 157.5t-135 399.5zM1194 633q62 35 123.5 59.5t128.5 40.5q-79 25 -135 52t-97 61q0 -48 -4.5 -99.5t-15.5 -113.5z" />
<glyph unicode="&#x153;" horiz-adv-x="1014" d="M25 188q0 100 70 199.5t100 99.5q5 0 8.5 -3t3.5 -7t-13 -25q-61 -103 -61 -186q0 -92 46.5 -147.5t121.5 -55.5q81 0 136 67.5t55 168.5q0 92 -52.5 149.5t-136.5 57.5q-8 0 -32 -3q-10 -1 -15 -1l-12 10q11 27 25 51t30 45q21 3 30.5 3.5t18.5 0.5q82 0 134.5 -45 t70.5 -131q54 78 136.5 127t164.5 49q55 0 88 -30t33 -80q0 -83 -79 -130.5t-308 -90.5q-1 -10 -1.5 -19t-0.5 -18q0 -80 44.5 -126t123.5 -46q62 0 115.5 31t93.5 90q19 29 36 67.5t21 38.5q2 0 5 -3.5t3 -6.5q0 -8 -16.5 -46t-40.5 -77q-58 -94 -135.5 -144.5 t-163.5 -50.5q-77 0 -128 37.5t-73 108.5q-50 -70 -113 -108t-129 -38q-94 0 -149 58.5t-55 158.5zM592 311q130 30 195 76t65 109q0 27 -16.5 45t-42.5 18q-64 0 -123.5 -71t-77.5 -177z" />
<glyph unicode="&#x178;" horiz-adv-x="1462" d="M139 993q0 50 28 95t89 94q74 58 145 87t140 29q118 0 178.5 -69.5t60.5 -206.5q0 -28 -2.5 -58t-7.5 -67l-53 -334q-4 -27 -6 -52.5t-2 -49.5q0 -99 46 -155t128 -56q187 0 292 212t105 597q0 83 -1 125t-3 78q34 8 68 14t71 10q-3 -515 -25.5 -833t-66.5 -473 q-63 -224 -201.5 -339.5t-343.5 -115.5q-164 0 -271.5 72.5t-107.5 181.5q0 81 76 164.5t113 83.5q5 -1 8.5 -3.5t3.5 -5.5q0 -2 -8 -12q-55 -71 -55 -172q0 -111 80 -189.5t198 -78.5q216 0 318 219t129 766q-76 -175 -181.5 -268t-228.5 -93q-127 0 -199.5 83t-72.5 229 q0 14 5.5 63t14.5 115l35 248q0 3 1 12q7 60 7 86q0 102 -47.5 157.5t-134.5 55.5q-84 0 -143.5 -50.5t-59.5 -121.5q0 -54 35 -89.5t88 -35.5q54 0 106 46q13 11 17 11t7 -2t3 -4q0 -27 -73.5 -85t-149.5 -58q-68 0 -110 39.5t-42 103.5zM619 1567q0 35 26.5 61.5 t61.5 26.5t61.5 -26.5t26.5 -61.5q0 -38 -25.5 -64.5t-62.5 -26.5t-62.5 26.5t-25.5 64.5zM967 1567q0 35 26.5 61.5t61.5 26.5t61.5 -26.5t26.5 -61.5q0 -38 -25.5 -64.5t-62.5 -26.5t-62.5 26.5t-25.5 64.5z" />
<glyph unicode="&#x2c6;" horiz-adv-x="1024" d="M281 723l225 348h94l223 -348h-49l-221 231l-223 -231h-49z" />
<glyph unicode="&#x2dc;" horiz-adv-x="1024" d="M268 780q17 88 61 135.5t109 47.5q18 0 40 -4.5t50 -12.5l117 -35q15 -4 29 -6t26 -2q37 0 60.5 22t34.5 66h43q-19 -90 -63.5 -137t-110.5 -47q-15 0 -33.5 3.5t-44.5 10.5l-117 37q-18 6 -34.5 9t-31.5 3q-35 0 -57 -21t-35 -69h-43z" />
<glyph unicode="&#x2000;" horiz-adv-x="916" />
<glyph unicode="&#x2001;" horiz-adv-x="1833" />
<glyph unicode="&#x2002;" horiz-adv-x="916" />
<glyph unicode="&#x2003;" horiz-adv-x="1833" />
<glyph unicode="&#x2004;" horiz-adv-x="611" />
<glyph unicode="&#x2005;" horiz-adv-x="458" />
<glyph unicode="&#x2006;" horiz-adv-x="305" />
<glyph unicode="&#x2007;" horiz-adv-x="305" />
<glyph unicode="&#x2008;" horiz-adv-x="229" />
<glyph unicode="&#x2009;" horiz-adv-x="366" />
<glyph unicode="&#x200a;" horiz-adv-x="101" />
<glyph unicode="&#x2010;" horiz-adv-x="588" d="M90 252l35 104h385l-35 -104h-385z" />
<glyph unicode="&#x2011;" horiz-adv-x="588" d="M90 252l35 104h385l-35 -104h-385z" />
<glyph unicode="&#x2012;" horiz-adv-x="588" d="M90 252l35 104h385l-35 -104h-385z" />
<glyph unicode="&#x2013;" horiz-adv-x="1024" d="M8 266l33 74h1026l-35 -74h-1024z" />
<glyph unicode="&#x2014;" horiz-adv-x="2048" d="M8 266l33 74h2048l-33 -74h-2048z" />
<glyph unicode="&#x2018;" horiz-adv-x="379" d="M262 739v52q0 165 29 299t80 208l137 -32q-95 -116 -150 -248.5t-67 -278.5h-29z" />
<glyph unicode="&#x2019;" horiz-adv-x="379" d="M211 762q55 107 83 216.5t28 219.5q0 2 -1.5 26t-2.5 46l126 28q1 -12 1.5 -24t0.5 -23q0 -86 -53.5 -212t-159.5 -289z" />
<glyph unicode="&#x201a;" horiz-adv-x="379" d="M-6 -389q55 107 82.5 216.5t27.5 219.5q0 16 -0.5 34t-1.5 38l125 28q1 -12 1.5 -24t0.5 -23q0 -86 -53.5 -212t-159.5 -289z" />
<glyph unicode="&#x201c;" horiz-adv-x="711" d="M262 739v52q0 165 29 299t80 208l137 -32q-95 -116 -150 -248.5t-67 -278.5h-29zM594 791q0 165 29 299t79 208l138 -32q-96 -116 -150.5 -248.5t-66.5 -278.5h-27q0 8 -1 25t-1 27z" />
<glyph unicode="&#x201d;" horiz-adv-x="711" d="M211 762q55 107 83 216.5t28 219.5q0 2 -1.5 26t-2.5 46l126 28q1 -12 1.5 -24t0.5 -23q0 -86 -53.5 -212t-159.5 -289zM543 762q55 107 82.5 216.5t27.5 219.5q0 3 -1.5 27t-1.5 45l126 28q1 -12 1.5 -24t0.5 -23q0 -86 -53.5 -212t-159.5 -289z" />
<glyph unicode="&#x201e;" horiz-adv-x="711" d="M-6 -389q55 107 82.5 216.5t27.5 219.5q0 16 -0.5 34t-1.5 38l125 28q1 -12 1.5 -24t0.5 -23q0 -86 -53.5 -212t-159.5 -289zM326 -389q55 107 82.5 216.5t27.5 219.5q0 16 -0.5 34t-1.5 38l125 28q1 -12 1.5 -24t0.5 -23q0 -86 -53.5 -212t-159.5 -289z" />
<glyph unicode="&#x2022;" horiz-adv-x="1208" d="M307 762q0 123 87 209t210 86q122 0 208.5 -86.5t86.5 -208.5t-87.5 -209.5t-209.5 -87.5q-123 0 -209 87t-86 210z" />
<glyph unicode="&#x2026;" horiz-adv-x="2048" d="M265 -18q0 40 3 78t9 75q23 6 50 9t63 3h30q0 -33 -3 -69t-11 -84q-23 -7 -48.5 -9.5t-62.5 -2.5h-30zM947 -18q0 40 3 78t9 75q23 6 50 9t63 3h30q0 -33 -3 -69t-11 -84q-23 -7 -48.5 -9.5t-62.5 -2.5h-30zM1631 -18q0 40 3 78t9 75q23 6 50 9t63 3h30q0 -33 -3 -69 t-11 -84q-23 -7 -48.5 -9.5t-62.5 -2.5h-30z" />
<glyph unicode="&#x202f;" horiz-adv-x="366" />
<glyph unicode="&#x2039;" horiz-adv-x="461" d="M86 291q111 81 211.5 171.5t108.5 90.5q5 0 9.5 -4t4.5 -8q0 -22 -53.5 -93.5t-137.5 -154.5q81 -84 134 -156t53 -94q0 -5 -5 -9.5t-10 -4.5q-7 0 -105 91t-210 171z" />
<glyph unicode="&#x203a;" horiz-adv-x="461" d="M47 43q0 22 53.5 93.5t137.5 154.5q-82 84 -134.5 155t-52.5 93q0 4 5 9t10 5q6 0 104.5 -91t210.5 -171q-111 -82 -211.5 -172t-108.5 -90q-5 0 -9.5 4.5t-4.5 9.5z" />
<glyph unicode="&#x205f;" horiz-adv-x="458" />
<glyph unicode="&#x2122;" horiz-adv-x="1683" d="M250 1260l10 174h438l11 -174h-25q-8 78 -41.5 114.5t-97.5 36.5h-23v-426q0 -25 13 -40t34 -15l33 -2v-25h-246v25l33 2q20 0 32.5 15.5t12.5 39.5v426h-22q-65 0 -98 -36.5t-40 -114.5h-24zM795 903v25h32q22 0 34.5 15t12.5 40v371q0 24 -13.5 39.5t-35.5 15.5l-30 2 v23h176l143 -406l154 406h168v-23l-31 -2q-21 0 -34 -15t-13 -40v-369q0 -25 13 -40t34 -15l31 -2v-25h-234v25l33 2q21 0 34 15t13 40v399l-182 -485h-13l-174 485v-399q0 -25 13 -40t35 -15l32 -2v-25h-198z" />
<glyph unicode="&#x25fc;" horiz-adv-x="610" d="M0 0v610h610v-610h-610z" />
</font>
</defs>
</svg>
